<svg width="146" height="197" viewBox="0 0 146 78" fill="none" xmlns="http://www.w3.org/2000/svg"><path d="M133.953 20.561c0 .15-.079.31-.079.47-1.58 7.65-8.769 12.61-11.851 13.25-.237 0-.395.07-.553.07-12.325 3.55-24.492-7.41-21.806-20.42 1.976-9.46 11.219-15.53 20.7-13.56 9.165 1.82 15.327 10.8 13.589 20.19z" fill="url(#a)"/><path d="M108.987 5.661c-3.16 2.05-5.294 5.2-6.084 8.9-3.634 17.43 22.912 24.6 27.653 5.76 2.607-12.3-11.14-21.52-21.569-14.66z" fill="#F9B400"/><path d="M133.942 20.551c0 .16-.079.31-.079.47-1.58 7.65-8.77 12.62-11.851 13.25l-13.194-11.36 3.397-.78-3.871-3.39 6.795-.71s-3.477-3.08-3.635-3.24c0-.08 2.371-1.02 2.371-1.02.553-1.74 11.06 2.68 11.851-1.42l8.216 8.2z" fill="url(#b)"/><path d="M108.739 22.841c.79-2.53.79-2.29.79-2.53.079-.31-.711-.16 11.219-.16.553-1.81 1.185-3.62 1.738-5.44h-11.14c.079-.31-.079.08.79-2.36.079-.32.079-.32.474-.32h12.009c.949 0 1.739.56 1.818 1.66.079.71 0 .95-1.818 6.31-.474 1.49-2.054 2.6-3.16 2.76-.395.08.237.08-12.72.08z" fill="url(#c)"/><path d="M115.772 16.211c-.316.87-.553 1.66-.869 2.53h-6.637c.395-1.11.474-1.42.79-2.37.158-.24-.395-.16 6.716-.16z" fill="url(#d)"/><path d="m91.587 36.31-7.824 3.814c-1.423.672-3.104.141-3.786-1.045-.678-1.308-.084-2.892 1.196-3.548.528-.267.442-1.031-.134-1.135-8.345-1.495-17.145-.458-25.125 2.872-1.422.656-3.1.004-3.64-1.304-.679-1.324.057-2.907 1.477-3.427 6.252-2.64 13.042-3.974 19.665-3.982 3.14-.004 6.275.262 9.324.873.725.146 1.329-.638.972-1.282-.68-1.308-.086-2.892 1.196-3.548.427-.259.851-.26 1.273-.26a2.914 2.914 0 0 1 2.508 1.443l3.892 7.123c.037.067.083.13.132.19.858 1.06.257 2.562-1.126 3.215z" fill="url(#e)"/><path d="M142.458 59.825c-.347 1.64-.867 3.2-1.561 4.67-.087.35-.261.61-.434.95-.607 1.13-1.215 2.16-1.996 3.2-.347.43-.607.78-.954 1.13a23.514 23.514 0 0 1-6.766 5.27c-.434.26-.955.43-1.475.69-.868.35-1.649.61-2.516.87-3.384.95-6.94 1.12-10.671.43-12.058-2.51-19.78-14.27-17.35-26.29 2.516-12.02 14.314-19.72 26.373-17.3 4.251.87 8.154 3.03 11.277 6.06a22.578 22.578 0 0 1 6.073 20.32z" fill="url(#f)"/><path fill-rule="evenodd" clip-rule="evenodd" d="M116.779 73.664c1.215.26 2.516.43 3.818.43 1.735 0 3.47-.26 5.118-.69.694-.17 1.388-.43 2.169-.78.226-.088.428-.2.631-.314a5.56 5.56 0 0 1 .583-.296 19.045 19.045 0 0 0 5.726-4.49c.237-.236.474-.548.711-.859l.07-.09c.694-.87 1.214-1.73 1.735-2.68.044-.13.109-.26.174-.39.065-.13.13-.26.173-.39.607-1.21 1.041-2.6 1.301-3.98a18.707 18.707 0 0 0-5.118-17.13c-2.603-2.59-5.899-4.32-9.456-5.1-4.945-1.04-9.977-.09-14.141 2.68-4.164 2.68-7.027 6.92-8.068 11.85-2.169 10.12 4.424 20.15 14.574 22.23zm-5.638-32.78c2.862-1.82 6.072-2.77 9.369-2.77 1.214 0 2.342.17 3.557.43 3.296.7 6.333 2.34 8.675 4.67 4.164 4.07 5.899 9.86 4.685 15.57-.261 1.21-.694 2.42-1.215 3.63-.043.13-.108.24-.173.35-.065.11-.13.22-.174.35-.434.86-.954 1.64-1.561 2.42-.174.26-.434.6-.694.86a18.312 18.312 0 0 1-5.206 4.07c-.153.076-.323.15-.495.227a11.33 11.33 0 0 0-.632.293c-.781.34-1.388.52-1.996.69-2.602.69-5.465.86-8.154.26-9.283-1.9-15.269-10.99-13.36-20.24.954-4.5 3.556-8.3 7.374-10.81z" fill="#F9B400"/><path d="M140.277 65.695a21.35 21.35 0 0 1-1.822 3.03c-.347.43-.607.78-.954 1.12a23.367 23.367 0 0 1-6.767 5.28c-.433.26-.954.43-1.474.69-.868.35-1.649.61-2.516.87l-13.881-13.84 4.425-2.34.52-1.03.087-2.17s-.173-7.87-.347-8.13c-.087-.08 1.388-5.1 1.388-5.1l1.562 3.55 1.995-3.55 19.085 19.03c-.173.34-1.127 2.25-1.301 2.59z" fill="url(#g)"/><path fill-rule="evenodd" clip-rule="evenodd" d="M118.849 66.474h-2.169v-3.55c-1.028-.126-2.009-.109-3.012-.092-.351.006-.705.012-1.065.012.194-1.222.291-1.633.365-1.941.025-.106.047-.2.069-.309 0-.09.086-.17.173-.17h1.215c.694 0 .78-.18.78-.7v-8.64c0-.87-.52-1.13-1.127-1.13h-1.388v-2.07h3.73c.26 0 .26 0 .26-.26v-3.38h2.169v3.55h1.562v-3.55h1.995v3.46c0 .18 0 .18.173.26 2.43.26 4.425 1.04 4.685 3.46.087.87 0 1.65-.52 2.34-.347.52-.781.78-1.128.95.085.037.188.075.305.117.72.264 1.949.714 2.471 2.133.26.69.173 1.38.087 1.99a4.39 4.39 0 0 1-.781 1.99c-.521.77-1.215 1.21-1.995 1.47-.955.34-1.996.51-3.037.6-.173 0-.173.09-.173.26v3.37h-1.996v-3.46h-1.561c-.087.96-.087 2.08-.087 3.29zm0-10.38v4.41c.353-.013.679-.021.982-.03 1.557-.042 2.513-.067 3.529-.57.607-.35.954-.78 1.041-1.47.087-.78-.26-1.3-.867-1.73-1.128-.78-3.384-.69-4.685-.61zm0-2.07v-3.98c.201 0 .411-.006.629-.012.913-.028 1.964-.06 3.015.352 1.301.61 1.648 2.77-.521 3.38-.781.26-2.342.34-3.123.26z" fill="url(#h)"/><path d="M35.221 56.88v3.176c0 .453-.34.793-.792.793H3.396a.775.775 0 0 1-.792-.793v-3.177c0-.454.34-.793.792-.793H34.43c.453.113.792.453.792.793z" fill="url(#i)"/><path opacity=".5" d="m9.966 56.2-1.132 4.536H4.416l1.133-4.537h4.417zm15.856 0-1.133 4.536h-2.49l1.017-4.537h2.606zm-14.043 0-1.133 4.536H9.512l1.134-4.537h1.133z" fill="#fff"/><path opacity=".1" d="M35.109 60.281H2.604v.568H35.11v-.568z" fill="#4F3500"/><path d="M37.713 52.229v3.175c0 .454-.34.795-.792.795H5.889a.775.775 0 0 1-.793-.795v-3.175c0-.454.34-.794.793-.794H36.92c.453.112.792.453.792.794z" fill="url(#j)"/><path opacity=".5" d="m11.326 51.548-1.02 4.651H5.89l1.018-4.651h4.418zm14.836 0-1.133 4.651h-2.605l1.132-4.651h2.606zm-12.912 0-1.133 4.651h-1.132l1.132-4.651h1.133z" fill="#fff"/><path opacity=".1" d="M37.713 55.631H5.21v.568h32.503v-.568z" fill="#4F3500"/><path d="M36.807 47.691v3.176c0 .455-.34.794-.792.794H4.983a.774.774 0 0 1-.793-.794v-3.176c0-.453.34-.794.793-.794h31.032c.453 0 .792.341.792.794z" fill="url(#k)"/><path opacity=".5" d="m12.683 46.898-1.132 4.65H7.134l1.133-4.65h4.416zm14.724 0-1.018 4.65h-2.606l1.133-4.65h2.491zm-12.912 0-1.018 4.65h-1.133l1.02-4.65h1.131z" fill="#fff"/><path opacity=".1" d="M36.807 50.981H4.303v.567h32.504v-.567z" fill="#4F3500"/><path d="M35.221 33.853v3.176c0 .455-.34.794-.792.794H3.396a.774.774 0 0 1-.792-.794v-3.176c0-.453.34-.794.792-.794H34.43c.453 0 .792.341.792.794z" fill="url(#l)"/><path opacity=".5" d="m9.966 33.06-1.132 4.65H4.416l1.133-4.65h4.417zm15.856 0-1.133 4.65h-2.49l1.017-4.65h2.606zm-14.043 0-1.133 4.65H9.512l1.134-4.65h1.133z" fill="#fff"/><path opacity=".1" d="M35.109 37.143H2.604v.566H35.11v-.566z" fill="#4F3500"/><path d="M37.713 29.203v3.176c0 .453-.34.794-.792.794H5.889a.775.775 0 0 1-.793-.794v-3.176c0-.454.34-.794.793-.794H36.92c.453 0 .792.34.792.794z" fill="url(#m)"/><path opacity=".5" d="m11.326 28.41-1.02 4.65H5.89l1.018-4.65h4.418zm14.836 0-1.133 4.65h-2.605l1.132-4.65h2.606zm-12.912-.001-1.133 4.65h-1.132l1.132-4.65h1.133z" fill="#fff"/><path opacity=".1" d="M37.713 32.491H5.21v.568h32.503v-.568z" fill="#4F3500"/><path d="M36.807 24.553v3.176c0 .453-.34.794-.792.794H4.983a.775.775 0 0 1-.793-.794v-3.176c0-.455.34-.794.793-.794h31.032c.453.113.792.453.792.794z" fill="url(#n)"/><path opacity=".5" d="m12.683 23.872-1.132 4.537H7.134l1.133-4.537h4.416zm14.724 0-1.018 4.537h-2.606l1.133-4.537h2.491zm-12.912 0-1.018 4.537h-1.133l1.02-4.537h1.131z" fill="#fff"/><path opacity=".1" d="M36.807 27.955H4.303v.568h32.504v-.568z" fill="#4F3500"/><path d="M37.713 43.041v3.177c0 .452-.34.793-.792.793H5.889a.775.775 0 0 1-.793-.794v-3.176c0-.454.34-.794.793-.794H36.92c.453 0 .792.34.792.794z" fill="url(#o)"/><path opacity=".5" d="m13.59 42.247-1.019 4.65H8.154l1.02-4.65h4.415zm14.837 0-1.132 4.65h-2.606l1.133-4.65h2.605zm-12.912 0-1.132 4.65H13.25l1.133-4.65h1.132z" fill="#fff"/><path opacity=".1" d="M37.713 46.444H5.21v.567h32.503v-.567z" fill="#4F3500"/><path d="M32.617 38.39v3.176c0 .454-.34.795-.793.795H.792A.775.775 0 0 1 0 41.566V38.39c0-.454.34-.795.792-.795h31.032c.453.113.793.454.793.795z" fill="url(#p)"/><path opacity=".5" d="m15.289 37.71-1.133 4.537H9.74l1.131-4.538h4.418zm14.723 0-1.019 4.537h-2.606l1.133-4.538h2.492zm-12.912 0-1.019 4.537H14.95l1.018-4.538H17.1z" fill="#fff"/><path opacity=".1" d="M32.617 41.793H.114v.568h32.503v-.568z" fill="#4F3500"/><path d="M37.713 20.015v3.176c0 .454-.34.794-.792.794H5.889a.774.774 0 0 1-.793-.794v-3.176c0-.453.34-.794.793-.794H36.92c.453 0 .792.34.792.794z" fill="url(#q)"/><path opacity=".5" d="m13.59 19.221-1.019 4.65H8.154l1.02-4.65h4.415zm14.837-.001-1.132 4.651h-2.606l1.133-4.65h2.605zm-12.912 0-1.132 4.651H13.25l1.133-4.65h1.132z" fill="#fff"/><path opacity=".1" d="M37.713 23.305H5.21v.567h32.503v-.567z" fill="#4F3500"/><path d="M32.617 15.364v3.177c0 .453-.34.794-.792.794H.791A.775.775 0 0 1 0 18.54v-3.177c0-.452.34-.793.792-.793h31.032c.454 0 .793.34.793.793z" fill="url(#r)"/><path opacity=".5" d="m15.289 14.57-1.133 4.65H9.739l1.132-4.65h4.418zm14.724 0-1.02 4.651h-2.605l1.133-4.65h2.492zm-12.913 0-1.019 4.651H14.95l1.018-4.65h1.134z" fill="#fff"/><path opacity=".1" d="M32.617 18.654H.114v.567h32.503v-.567z" fill="#4F3500"/><path d="M145.062 32.833c-1.233 6.11-7.191 9.94-9.246 9.94-9.247 2.69-18.288-5.59-16.233-15.32 1.438-7.15 8.425-11.7 15.411-10.15 6.986 1.45 11.609 8.39 10.068 15.53z" fill="url(#s)"/><path d="M126.569 21.343c-2.362 1.55-4.006 3.93-4.52 6.73-2.671 13.04 17.055 18.53 20.548 4.35 1.952-9.32-8.219-16.26-16.028-11.08z" fill="#F9B400"/><path d="M143.61 33.653c-.103.51-.309.93-.514 1.45-.103.2-.103.31-.206.51-.308.62-.719 1.14-1.027 1.76-.103.21-.308.42-.514.62-1.027 1.14-2.26 2.18-3.595 2.8-.206.1-.514.21-.822.41-.411.21-.925.31-1.336.42h-.103l-3.185-3.21v-4.14l-4.931-3.94 2.877.73s-.103-5.07-.206-5.18c0-.1 1.541 0 1.541 0 .411-1.34.206-.51.822-3.62l11.199 11.39z" fill="url(#t)"/><path d="m137.343 30.443-5.035 3-5.034-3 5.034-8.18 5.035 8.18z" fill="#fff"/><path d="m137.343 31.373-5.035 7.04-5.034-7.04 5.034 2.9 5.035-2.9z" fill="#fff"/><path d="m137.343 30.443-5.035 3-5.034-3 5.034-2.28 5.035 2.28z" fill="#FDF2C8"/><path opacity=".3" d="m132.308 34.273 5.035-2.9-5.035 7.04v-4.14zm5.035-3.83-5.035 3v-11.18l5.035 8.18z" fill="#FACD35"/><defs><linearGradient id="a" x1="99.181" y1="34.99" x2="134.23" y2="34.99" gradientUnits="userSpaceOnUse"><stop offset=".003" stop-color="#FFD44F"/><stop offset="1" stop-color="#FFA607"/></linearGradient><linearGradient id="b" x1="112.952" y1="20.939" x2="119.161" y2="29.424" gradientUnits="userSpaceOnUse"><stop stop-color="#FAA404"/><stop offset="1" stop-color="#FF7904" stop-opacity=".01"/></linearGradient><linearGradient id="c" x1="131.19" y1="18.582" x2="125.118" y2="6.041" gradientUnits="userSpaceOnUse"><stop stop-color="#FFE491"/><stop offset="1" stop-color="#fff"/></linearGradient><linearGradient id="d" x1="135.591" y1="22.648" x2="133.935" y2="11.552" gradientUnits="userSpaceOnUse"><stop stop-color="#FFE491"/><stop offset="1" stop-color="#fff"/></linearGradient><linearGradient id="e" x1="72.451" y1="40.432" x2="72.431" y2="24.355" gradientUnits="userSpaceOnUse"><stop stop-color="#2CF2E3"/><stop offset="1" stop-color="#23DE6C" stop-opacity=".52"/></linearGradient><linearGradient id="f" x1="98.256" y1="77.516" x2="142.897" y2="77.516" gradientUnits="userSpaceOnUse"><stop offset=".003" stop-color="#FFD44F"/><stop offset="1" stop-color="#FFA607"/></linearGradient><linearGradient id="g" x1="115.1" y1="61.297" x2="126.455" y2="70.13" gradientUnits="userSpaceOnUse"><stop stop-color="#FAA404"/><stop offset="1" stop-color="#FF7904" stop-opacity=".01"/></linearGradient><linearGradient id="h" x1="134.033" y1="56.568" x2="116.214" y2="45.166" gradientUnits="userSpaceOnUse"><stop stop-color="#FFE491"/><stop offset="1" stop-color="#fff"/></linearGradient><linearGradient id="i" x1="2.641" y1="60.838" x2="35.192" y2="60.838" gradientUnits="userSpaceOnUse"><stop offset=".003" stop-color="#FFD44F"/><stop offset="1" stop-color="#FFA607"/></linearGradient><linearGradient id="j" x1="5.198" y1="56.222" x2="37.75" y2="56.222" gradientUnits="userSpaceOnUse"><stop offset=".003" stop-color="#FFD44F"/><stop offset="1" stop-color="#FFA607"/></linearGradient><linearGradient id="k" x1="4.252" y1="51.605" x2="36.804" y2="51.605" gradientUnits="userSpaceOnUse"><stop offset=".003" stop-color="#FFD44F"/><stop offset="1" stop-color="#FFA607"/></linearGradient><linearGradient id="l" x1="2.641" y1="37.755" x2="35.192" y2="37.755" gradientUnits="userSpaceOnUse"><stop offset=".003" stop-color="#FFD44F"/><stop offset="1" stop-color="#FFA607"/></linearGradient><linearGradient id="m" x1="5.198" y1="33.137" x2="37.75" y2="33.137" gradientUnits="userSpaceOnUse"><stop offset=".003" stop-color="#FFD44F"/><stop offset="1" stop-color="#FFA607"/></linearGradient><linearGradient id="n" x1="4.252" y1="28.521" x2="36.804" y2="28.521" gradientUnits="userSpaceOnUse"><stop offset=".003" stop-color="#FFD44F"/><stop offset="1" stop-color="#FFA607"/></linearGradient><linearGradient id="o" x1="5.197" y1="46.988" x2="37.75" y2="46.988" gradientUnits="userSpaceOnUse"><stop offset=".003" stop-color="#FFD44F"/><stop offset="1" stop-color="#FFA607"/></linearGradient><linearGradient id="p" x1=".07" y1="42.373" x2="32.621" y2="42.373" gradientUnits="userSpaceOnUse"><stop offset=".003" stop-color="#FFD44F"/><stop offset="1" stop-color="#FFA607"/></linearGradient><linearGradient id="q" x1="5.197" y1="23.904" x2="37.75" y2="23.904" gradientUnits="userSpaceOnUse"><stop offset=".003" stop-color="#FFD44F"/><stop offset="1" stop-color="#FFA607"/></linearGradient><linearGradient id="r" x1=".07" y1="19.287" x2="32.621" y2="19.287" gradientUnits="userSpaceOnUse"><stop offset=".003" stop-color="#FFD44F"/><stop offset="1" stop-color="#FFA607"/></linearGradient><linearGradient id="s" x1="119.269" y1="43.339" x2="145.365" y2="43.339" gradientUnits="userSpaceOnUse"><stop offset=".003" stop-color="#FFD44F"/><stop offset="1" stop-color="#FFA607"/></linearGradient><linearGradient id="t" x1="129.271" y1="33.103" x2="135.76" y2="37.624" gradientUnits="userSpaceOnUse"><stop stop-color="#FAA404"/><stop offset="1" stop-color="#FF7904" stop-opacity=".01"/></linearGradient></defs></svg>