<svg width="1390" height="204" viewBox="0 0 1390 204" fill="none" xmlns="http://www.w3.org/2000/svg"><path d="M351.54 56.13v17.94H333.6v-8.46c0-1.86-1.69-3.38-3.38-3.38h-35.2c-1.69 0-3.38 1.52-3.38 3.38v77.16c0 1.86 1.69 3.38 3.38 3.38h35.2c1.69 0 3.38-1.52 3.38-3.38v-8.46h17.94v17.94c0 6.09-5.58 11.17-12.18 11.17h-53.47c-6.6 0-12.18-5.08-12.18-11.17V56.13c0-6.09 5.58-11.17 12.18-11.17h53.47c6.6 0 12.18 5.08 12.18 11.17zm99.17 0v52.46c0 6.09-5.58 11.17-12.18 11.17h-47.72v43.66h-17.94V44.96h65.66c6.59 0 12.18 5.08 12.18 11.17zm-17.94 9.48c0-1.86-1.69-3.38-3.38-3.38h-38.58v40.27h38.58c1.69 0 3.38-1.52 3.38-3.38V65.61zm81.57 38.58 30.12 59.23h-20.31l-19.97-39.26-19.97 39.26h-20.14l30.12-59.23-30.12-59.23h20.14l19.97 39.26 19.97-39.26h20.31l-30.12 59.23zm172.94-48.06V96.4c0 5.92-4.23 9.98-8.97 10.66 4.74.68 8.97 4.74 8.97 10.66v45.69h-17.94v-44.34c0-1.69-1.35-3.38-3.38-3.38h-38.58v47.72h-17.94V44.96h65.66c6.59 0 12.18 5.08 12.18 11.17zm-17.94 9.48c0-1.86-1.69-3.38-3.38-3.38h-38.58v36.21h38.58c2.03 0 3.38-1.69 3.38-3.38V65.61zm59.57-3.39v33.34h41.97v17.26h-41.97v33.34h59.9v17.26h-77.84V44.96h77.84v17.26h-59.9zm159.06-6.09v17.94h-17.94v-8.46c0-1.86-1.69-3.38-3.38-3.38h-35.2c-1.69 0-3.38 1.52-3.38 3.38v26.57c0 1.86 1.69 3.38 3.38 3.38h44.34c6.6 0 12.18 5.08 12.18 11.17v45.52c0 6.09-5.58 11.17-12.18 11.17h-53.47c-6.6 0-12.18-5.08-12.18-11.17v-17.94h17.94v8.46c0 1.86 1.69 3.38 3.38 3.38h35.2c1.69 0 3.38-1.52 3.38-3.38V116.2c0-1.86-1.69-3.38-3.38-3.38h-44.34c-6.6 0-12.18-5.08-12.18-11.17V56.13c0-6.09 5.58-11.17 12.18-11.17h53.47c6.6 0 12.18 5.08 12.18 11.17zm41.63 6.09v33.34h41.97v17.26H929.6v33.34h59.9v17.26h-77.84V44.96h77.84v17.26h-59.9zm136.4 70.4h-34.35l-8.97 30.8h-18.28l35.54-118.45h17.77l35.54 118.45h-18.28l-8.97-30.8zm-5.08-17.6-12.01-41.8-12.18 41.8h24.19zm127.42-58.89V96.4c0 5.92-4.23 9.98-8.97 10.66 4.74.68 8.97 4.74 8.97 10.66v45.69h-17.94v-44.34c0-1.69-1.35-3.38-3.38-3.38h-38.58v47.72h-17.94V44.96h65.66c6.6 0 12.18 5.08 12.18 11.17zm-17.94 9.48c0-1.86-1.69-3.38-3.38-3.38h-38.58v36.21h38.58c2.03 0 3.38-1.69 3.38-3.38V65.61zm119.47-9.48v17.94h-17.94v-8.46c0-1.86-1.69-3.38-3.38-3.38h-35.2c-1.69 0-3.38 1.52-3.38 3.38v77.16c0 1.86 1.69 3.38 3.38 3.38h35.2c1.69 0 3.38-1.52 3.38-3.38v-8.46h17.94v17.94c0 6.09-5.58 11.17-12.18 11.17h-53.47c-6.6 0-12.18-5.08-12.18-11.17V56.13c0-6.09 5.58-11.17 12.18-11.17h53.47c6.6 0 12.18 5.08 12.18 11.17zm99.17-11.17v118.45h-17.94v-50.6h-41.97v50.6h-17.94V44.96h17.94v50.6h41.97v-50.6h17.94zM101.67 0C45.61 0 0 45.61 0 101.67c0 10.79 1.7 21.19 4.82 30.95l18.25-8.81a81.367 81.367 0 0 1-3.08-22.14C19.99 56.64 56.63 20 101.66 20c29.43 0 55.27 15.65 69.64 39.07L38.49 153.32a81.777 81.777 0 0 1-7.92-11.56l-17.42 9.85a102.44 102.44 0 0 0 27.26 31.13l.02-.02.71.57L171.32 59.06a81.16 81.16 0 0 1 12.02 42.6c0 45.03-36.64 81.67-81.67 81.67-10.02 0-19.61-1.82-28.48-5.13L59.1 193.98c12.96 6 27.38 9.35 42.57 9.35 56.06 0 101.67-45.61 101.67-101.67S157.73 0 101.67 0z" fill="#fff"/></svg>