<svg width="200" height="52" viewBox="0 0 200 52" fill="none" xmlns="http://www.w3.org/2000/svg"><path opacity=".5" fill-rule="evenodd" clip-rule="evenodd" d="M0 2C0 .894.895 0 2 0h196c1.105 0 2 .894 2 1.999V50a2 2 0 0 1-2 2H2c-1.105 0-2-.894-2-1.999V2z" fill="#2A2C2E"/><path fill-rule="evenodd" clip-rule="evenodd" d="M72.6 31.222h-8.1v2.433h5.8c-.3 3.446-3.1 4.865-5.8 4.865-3.4 0-6.4-2.736-6.4-6.487 0-3.649 2.8-6.588 6.4-6.588 2.7 0 4.3 1.723 4.3 1.723l1.7-1.723s-2.2-2.433-6.1-2.433c-5 0-8.9 4.257-8.9 8.92 0 4.561 3.7 9.021 9 9.021 4.7 0 8.2-3.243 8.2-8.109.1-1.014-.1-1.622-.1-1.622zm7 .507c1.6 0 3.2 1.318 3.2 3.548 0 2.129-1.5 3.548-3.2 3.548-1.8 0-3.2-1.52-3.2-3.548-.1-2.028 1.3-3.548 3.2-3.548zm-.1-2.23c-3.3 0-5.7 2.636-5.7 5.676 0 3.143 2.3 5.778 5.8 5.778 3.1 0 5.7-2.433 5.7-5.778-.1-3.75-3-5.676-5.8-5.676zm12.598 2.23c1.6 0 3.2 1.318 3.2 3.548 0 2.129-1.5 3.548-3.2 3.548-1.8 0-3.2-1.52-3.2-3.548s1.4-3.548 3.2-3.548zm0-2.23c-3.3 0-5.7 2.636-5.7 5.676 0 3.143 2.3 5.778 5.8 5.778 3.1 0 5.7-2.433 5.7-5.778-.1-3.75-3.1-5.676-5.8-5.676zm12.5 2.23c1.5 0 3 1.318 3 3.548s-1.5 3.446-3.1 3.446-3.1-1.317-3.1-3.446c.1-2.23 1.6-3.548 3.2-3.548zm-.2-2.23c-3.1 0-5.5 2.737-5.5 5.778 0 3.446 2.8 5.778 5.4 5.778 1.6 0 2.5-.609 3.1-1.42v1.116c0 2.027-1.2 3.142-3 3.142-1.7 0-2.6-1.318-2.9-2.028l-2.2.913c.8 1.622 2.3 3.345 5.1 3.345 3 0 5.4-1.926 5.4-5.98v-10.34h-2.4v1.014c-.7-.811-1.7-1.318-3-1.318zm16.701 2.129c1 0 1.8.608 2.1 1.216l-5.1 2.129c-.2-1.622 1.3-3.345 3-3.345zm-.1-2.129c-2.9 0-5.3 2.331-5.3 5.778 0 3.649 2.7 5.778 5.6 5.778 2.4 0 3.9-1.318 4.8-2.535l-2-1.317c-.5.81-1.4 1.622-2.8 1.622-1.6 0-2.3-.913-2.8-1.724l7.6-3.243-.4-.913c-.7-1.925-2.5-3.446-4.7-3.446z" fill="#fff"/><path d="M114.301 23.62h-2.5v17.028h2.5V23.62zm33.597 0h-2.5v17.028h2.5V23.62zm-13.296 0h-2.5v17.028h2.5V23.62z" fill="#fff"/><path fill-rule="evenodd" clip-rule="evenodd" d="M132.102 23.62h6.1c2.9 0 5.3 2.432 5.3 5.371 0 2.94-2.4 5.373-5.3 5.373h-6.1V23.619zm2.5 2.533v5.778h3.6c1.6 0 2.8-1.318 2.8-2.838 0-1.622-1.3-2.838-2.8-2.838h-3.6v-.102zm31.8 20.071 7.2-16.725h-2.7l-7.3 16.725h2.8z" fill="#fff"/><path fill-rule="evenodd" clip-rule="evenodd" d="m167.202 42.372-5.6-12.873h2.7l3.9 8.819h-1v4.054zm-9.1-1.724h2.5v-6.082c.4-6.284-7.5-7.805-10.5-3.244l2 1.42c1.5-2.636 5.6-2.028 5.9.81-1.3-.304-2.6-.608-3.8-.405-1.9.203-3.6 1.42-3.8 3.447-.1 1.114.1 2.432.9 3.243 1.2 1.318 3.1 1.42 4.7 1.014.9-.203 1.6-.811 2.2-1.52v1.317h-.1zm0-4.865c-.3 1.419-1.4 2.432-2.8 2.838-2.9.81-3.6-3.954.7-3.345.8.101 1.4.202 2.1.507zM63.8 13.28h-3.7v1.115h2.6c-.1 1.52-1.4 2.23-2.6 2.23a2.92 2.92 0 0 1-2.9-2.94c0-1.723 1.3-2.94 2.9-2.94 1.2 0 2 .812 2 .812l.8-.811s-1-1.115-2.8-1.115c-2.3 0-4.1 1.926-4.1 4.054 0 2.028 1.7 4.055 4.1 4.055 2.2 0 3.7-1.52 3.7-3.75.1-.406 0-.71 0-.71z" fill="#fff"/><path d="M79.998 9.834h-1.1v7.704h1.1V9.834z" fill="#fff"/><path fill-rule="evenodd" clip-rule="evenodd" d="M72.502 17.64h1.1v-6.59h1.9V9.834h-4.9v1.115h1.9v6.69zm-7.4 0h4.4v-1.116h-3.2v-2.129h2.8V13.18h-2.8v-2.13h3.2V9.834h-4.4v7.805zm17.798 0H84v-6.59h1.9V9.834H81v1.115h1.9v6.69zm10-1.015a2.92 2.92 0 0 1-2.9-2.94c0-1.621 1.3-2.94 2.9-2.94 1.6 0 2.9 1.319 2.9 2.94-.1 1.724-1.4 2.94-2.9 2.94zm0-6.994c-2.3 0-4.1 1.926-4.1 4.054 0 2.028 1.6 4.055 4.1 4.055 2.4 0 4.1-2.027 4.1-4.055-.1-2.128-1.9-4.054-4.1-4.054zm5.202 8.009h1.1v-5.677l3.7 5.676h1.1V9.834h-1.2v5.676l-3.6-5.676h-1.1v7.805zM26 39.33c.1 0 .2-.101.3-.202L42 30.512l-3.7-3.75L26 39.33zm16.7-9.224-3.9-3.953 3.9-3.953 5.3 2.94c1.3.709.6 1.621 0 2.027l-5.3 2.94zm-.7-8.21-15.6-8.718c-.2-.101-.4-.101-.5-.202l12.5 12.67 3.6-3.75zm-17.1-8.718 12.9 13.076L25 39.33c-.4-.202-.6-.81-.6-1.419 0-1.318-.1-21.793-.1-23.314 0-.71.2-1.216.6-1.419z" fill="#fff"/></svg>