<svg width="193" height="163" viewBox="0 0 121 102" fill="none" xmlns="http://www.w3.org/2000/svg"><path d="M79.77 7.65c.785 0 1.422-.64 1.422-1.42 0-.78-.637-1.42-1.422-1.42-.786 0-1.422.64-1.422 1.42 0 .78.636 1.42 1.422 1.42z" fill="url(#a)"/><path d="M14.372 23.28c.58-.53.62-1.42.09-2a1.422 1.422 0 0 0-2.009-.09c-.579.53-.62 1.42-.09 2 .53.58 1.429.62 2.009.09z" fill="#32D697"/><path d="M78.268 84.76v3.15c-.079.32-.316.48-.553.48H52.828c-.237 0-.474-.24-.553-.48v-3.15c0-.4.237-.71.553-.71h24.808c.316.08.632.39.632.71z" fill="url(#b)"/><path opacity=".5" d="m57.174 84.13-.869 4.26h-3.556l.869-4.26h3.556zm11.772 0-.869 4.26h-2.055l.87-4.26h2.054zm-10.35 0-.869 4.26h-.869l.869-4.26h.869z" fill="#fff"/><path opacity=".1" d="M78.268 87.91H52.196v.48h26.072v-.48z" fill="#4F3500"/><path d="M77.478 80.5v2.92c0 .39-.237.71-.632.71H52.038c-.316 0-.632-.32-.632-.71V80.5c0-.39.237-.71.632-.71h24.887c.316 0 .553.32.553.71z" fill="url(#c)"/><path opacity=".5" d="m58.201 79.79-.869 4.34h-3.556l.87-4.34h3.555zm11.772 0-.869 4.34H67.05l.869-4.34h2.054zm-10.271 0-.948 4.34h-.869l.869-4.34h.948z" fill="#fff"/><path opacity=".1" d="M77.557 83.58H51.485v.47h26.072v-.47z" fill="#4F3500"/><path d="M78.268 76.16v2.92c0 .4-.237.71-.632.71H52.828c-.316 0-.632-.31-.632-.71v-2.92c0-.39.237-.7.632-.7h24.808c.316 0 .632.31.632.7z" fill="url(#d)"/><path opacity=".5" d="m58.991 75.46-.948 4.33h-3.477l.87-4.33h3.555zm11.772 0-.869 4.33H67.84l.869-4.33h2.054zm-10.35 0-.869 4.33h-.869l.869-4.33h.869z" fill="#fff"/><path opacity=".1" d="M78.268 79.32H52.196v.47h26.072v-.47z" fill="#4F3500"/><path d="M75.424 67.73v3.15c-.079.32-.316.48-.553.48H49.984c-.237 0-.474-.24-.553-.48v-3.15c0-.4.237-.71.553-.71h24.887c.316 0 .553.31.553.71z" fill="url(#e)"/><path opacity=".5" d="m54.329 67.02-.869 4.26h-3.555l.869-4.26h3.555zm11.773 0-.869 4.26h-2.055l.869-4.26h2.055zm-10.35 0-.869 4.26h-.869l.869-4.26h.869z" fill="#fff"/><path opacity=".1" d="M75.424 70.8H49.352v.48h26.072v-.48z" fill="#4F3500"/><path d="M74.634 63.39v2.92c0 .39-.237.71-.632.71H49.194c-.316 0-.632-.32-.632-.71v-2.92c0-.39.237-.71.632-.71h24.887c.316 0 .553.32.553.71z" fill="url(#f)"/><path opacity=".5" d="m55.357 62.68-.87 4.34h-3.555l.948-4.34h3.477zm11.851 0-.869 4.34h-2.134l.948-4.34h2.055zm-10.35 0-.869 4.34h-.948l.869-4.34h.948z" fill="#fff"/><path opacity=".1" d="M74.713 66.55H48.641v.47h26.072v-.47z" fill="#4F3500"/><path d="M75.424 59.06v2.91c0 .4-.237.71-.632.71H49.984c-.316 0-.632-.31-.632-.71v-2.91c0-.4.237-.71.632-.71h24.887c.316.07.553.31.553.71z" fill="url(#g)"/><path opacity=".5" d="m56.147 58.43-.869 4.25h-3.556l.869-4.25h3.556zm11.772 0-.869 4.25h-2.055l.87-4.25h2.054zm-10.349 0-.87 4.25h-.869l.87-4.25h.868z" fill="#fff"/><path opacity=".1" d="M75.424 62.21H49.352v.47h26.072v-.47z" fill="#4F3500"/><path d="M78.424 54.71v2.92c0 .39-.237.71-.632.71H52.984c-.316 0-.632-.32-.632-.71v-2.92c0-.39.237-.71.632-.71h24.887c.316.08.553.32.553.71z" fill="url(#h)"/><path opacity=".5" d="m59.147 54.08-.869 4.26h-3.556l.869-4.26h3.556zm11.772 0-.869 4.26h-2.055l.87-4.26h2.054zm-10.349 0-.87 4.26h-.869l.87-4.26h.868z" fill="#fff"/><path opacity=".1" d="M78.424 57.86H52.352v.48h26.072v-.48z" fill="#4F3500"/><path d="M74.16 71.91v2.91c0 .4-.237.71-.632.71H48.72c-.316 0-.632-.31-.632-.71v-2.91c0-.4.237-.71.632-.71h24.887c.237 0 .553.31.553.71z" fill="url(#i)"/><path opacity=".5" d="m60.334 71.2-.948 4.26H55.91l.869-4.26h3.555zm11.772 0-.869 4.26h-2.054l.869-4.26h2.054zm-10.35 0-.869 4.26h-.948l.948-4.26h.869z" fill="#fff"/><path opacity=".1" d="M74.16 74.98H48.088v.47H74.16v-.47z" fill="#4F3500"/><path d="M74.792 97.69v2.921c0 .39-.237.71-.632.71H49.273c-.316 0-.632-.32-.632-.71v-2.92c0-.39.237-.71.632-.71H74.16c.316 0 .632.32.632.71z" fill="url(#j)"/><path opacity=".5" d="m55.436 96.98-.869 4.341H51.09l.869-4.34h3.477zm11.851 0-.869 4.341h-2.134l.948-4.34h2.055zm-10.35 0-.869 4.341h-.948l.948-4.34h.869z" fill="#fff"/><path opacity=".1" d="M74.792 100.841H48.72v.48h26.072v-.48z" fill="#4F3500"/><path d="M75.266 93.43v2.92c0 .39-.237.71-.632.71H49.826c-.316 0-.632-.32-.632-.71v-2.92c0-.39.237-.71.632-.71h24.887c.237 0 .553.32.553.71z" fill="url(#k)"/><path opacity=".5" d="m55.989 92.72-.869 4.26h-3.556l.869-4.26h3.556zm11.772 0-.869 4.26h-2.055l.87-4.26h2.054zm-10.35 0-.869 4.26h-.869l.869-4.26h.869z" fill="#fff"/><path opacity=".1" d="M75.266 96.51H49.194v.47h26.072v-.47z" fill="#4F3500"/><path d="M80.323 89.1v2.91c0 .4-.237.71-.632.71H54.883c-.316 0-.633-.31-.633-.71V89.1c0-.4.238-.71.633-.71H79.77c.237 0 .553.31.553.71z" fill="url(#l)"/><path opacity=".5" d="m66.418 88.39-.869 4.33h-3.556l.948-4.33h3.477zm11.851 0-.87 4.33h-2.133l.948-4.33h2.055zm-10.349 0-.87 4.33h-.948l.87-4.33h.947z" fill="#fff"/><path opacity=".1" d="M80.323 92.25H54.25v.47h26.073v-.47z" fill="#4F3500"/><path d="M115.097 39.51c-1.738 8.28-9.876 13.4-12.641 13.4-12.483 3.55-24.808-7.57-22.122-20.65 1.975-9.54 11.377-15.77 21.016-13.72 9.559 1.97 15.801 11.27 13.747 20.97z" fill="url(#m)"/><path d="M89.894 23.9c-3.161 2.13-5.373 5.28-6.163 9.07-3.713 17.66 23.228 24.91 28.047 5.83 2.608-12.46-11.297-21.84-21.884-14.9z" fill="#F9B400"/><path d="M113.111 40.53c-.237.71-.474 1.34-.791 1.97-.079.23-.237.47-.316.71-.395.87-.948 1.57-1.422 2.28-.237.32-.474.56-.711.87-1.343 1.58-3.002 2.92-4.898 3.79-.316.15-.711.31-1.027.47-.632.24-1.185.47-1.817.63h-.079l-4.346-4.26v-5.52l-6.794-5.2 3.871.95s-.158-6.79-.316-6.94c-.079-.08 2.133-.08 2.133-.08.553-1.82.316-.79 1.106-4.89l15.407 15.22z" fill="url(#n)"/><path d="m104.578 36.19-6.874 4.02-6.794-4.02 6.794-10.96 6.874 10.96z" fill="#fff"/><path d="m104.578 37.53-6.874 9.46-6.794-9.46 6.794 3.94 6.874-3.94z" fill="#fff"/><path d="m104.578 36.19-6.874 4.02-6.794-4.02 6.794-3 6.874 3z" fill="#FDF2C8"/><path opacity=".3" d="m97.704 41.47 6.874-3.94-6.874 9.46v-5.52zm6.874-5.28-6.874 4.02V25.23l6.874 10.96z" fill="#FACD35"/><path d="M58.043 89.17v9.94H39.081v-1.5h-15.01v1.5H5.028v-9.94h53.014z" fill="#1FC07C"/><path d="M39.08 97.61H24.07v1.58h15.01v-1.58zm0-8.44H24.07v8.44h15.01v-8.44z" fill="#96E3C1"/><path d="M58.043 98.64H5.03v.7h53.014v-.7z" fill="#00A15D"/><path d="M64.126 78.92v9.94h-19.04v-1.58H30.075v1.58H11.113v-9.94h53.013z" fill="#1FC07C"/><path d="M45.086 87.28H30.075v1.58h15.011v-1.58z" fill="#96E3C1"/><path d="M45.086 78.92H30.075v8.44h15.011v-8.44z" fill="#96E3C1"/><path d="M64.126 88.39H11.113v.78h53.013v-.78z" fill="#00A15D"/><path d="M62.704 68.67v9.94H43.743v-1.58H28.731v1.58H9.691v-9.94h53.013z" fill="#1FC07C"/><path d="M43.743 77.03H28.731v1.58h15.012v-1.58z" fill="#96E3C1"/><path d="M43.743 68.67H28.731v8.44h15.012v-8.44z" fill="#96E3C1"/><path d="M62.704 78.14H9.691v.78h53.013v-.78z" fill="#00A15D"/><path d="M64.126 58.35v10.01h-19.04v-1.58H30.075v1.58H11.113V58.35h53.013z" fill="#1FC07C"/><path d="M45.086 66.78H30.075v1.58h15.011v-1.58zm0-8.43H30.075v8.43h15.011v-8.43z" fill="#96E3C1"/><path d="M64.126 67.89H11.113v.78h53.013v-.78z" fill="#00A15D"/><path opacity=".4" d="M56.068 74.19H26.914v24.92h29.154V74.19z" fill="#00A15D"/><path d="M82.614 75.14H29.522v24.911h53.092v-24.91z" fill="#96E3C1"/><path d="M80.955 76.64H31.023v21.84h49.932V76.64z" fill="#1FC07C"/><path fill-rule="evenodd" clip-rule="evenodd" d="M75.661 78.21c0 1.03.395 1.98 1.107 2.69.711.71 1.659 1.1 2.765 1.1v11.2a3.76 3.76 0 0 0-2.686 1.1 3.76 3.76 0 0 0-1.107 2.68H36.395c0-1.02-.395-1.97-1.106-2.68a3.76 3.76 0 0 0-2.686-1.1V82a3.764 3.764 0 0 0 3.792-3.79h39.266zm-25.124 9.31c0 3.78 2.45 6.86 5.531 6.86 3.002 0 5.53-3 5.53-6.86 0-3.79-2.449-6.86-5.53-6.86-3.081 0-5.531 3.07-5.531 6.86z" fill="#96E3C1"/><path d="M1 101.001h117.404" stroke="#2B323C" stroke-width="2" stroke-linecap="round" stroke-linejoin="round"/><path d="M28.968 13.8c-.395 0-.79-.24-.948-.55l-3.476-7.18c-.237-.55 0-1.18.474-1.42.553-.23 1.185 0 1.422.48l3.476 7.17c.238.55 0 1.18-.474 1.42-.158.08-.316.08-.474.08zm7.901-2.45c-.553 0-1.027-.47-1.027-1.02V5.68c0-.55.474-1.03 1.027-1.03.553 0 1.027.48 1.027 1.03v4.57c.079.63-.395 1.1-1.027 1.1zm8.217 2.05c-.079 0-.237 0-.316-.07a.996.996 0 0 1-.632-1.34L48.088.71a.996.996 0 0 1 1.343-.63c.553.16.869.79.632 1.34l-3.95 11.27c-.158.4-.632.71-1.027.71z" fill="#F9BA00"/><path d="M111.768 83.73v3.16c-.079.31-.317.47-.554.47H86.327c-.237 0-.474-.24-.553-.47v-3.16c0-.39.237-.71.553-.71h24.887c.316 0 .554.32.554.71z" fill="url(#o)"/><path opacity=".5" d="m90.673 83.02-.869 4.34h-3.556l.869-4.34h3.556zm11.851 0-.948 4.34h-2.055l.87-4.34h2.133zm-10.35 0-.869 4.34h-.948l.87-4.34h.947z" fill="#fff"/><path opacity=".1" d="M111.847 86.81H85.774v.47h26.073v-.47z" fill="#4F3500"/><path d="M111.056 79.4v2.91c0 .4-.237.71-.632.71H85.537c-.316 0-.632-.31-.632-.71V79.4c0-.4.237-.71.632-.71h24.887c.316 0 .632.31.632.71z" fill="url(#p)"/><path opacity=".5" d="m91.7 78.69-.869 4.33h-3.477l.869-4.33H91.7zm11.851 0-.869 4.33h-2.134l.949-4.33h2.054zm-10.35 0-.869 4.33h-.948l.948-4.33h.869z" fill="#fff"/><path opacity=".1" d="M111.056 82.55H84.984v.47h26.072v-.47z" fill="#4F3500"/><path d="M111.767 75.14v2.92c0 .39-.237.71-.632.71H86.327c-.316 0-.632-.32-.632-.71v-2.92c0-.39.237-.71.632-.71h24.887c.316 0 .553.32.553.71z" fill="url(#q)"/><path opacity=".5" d="m92.49 74.43-.87 4.26h-3.555l.87-4.26h3.555zm11.772 0-.869 4.26h-2.054l.869-4.26h2.054zm-10.271 0-.948 4.26h-.869l.869-4.26h.948z" fill="#fff"/><path opacity=".1" d="M111.846 78.21H85.774v.48h26.072v-.48z" fill="#4F3500"/><path d="M108.923 66.62v3.16c-.079.31-.316.47-.553.47H83.483c-.237 0-.474-.24-.553-.47v-3.16c0-.39.237-.7.553-.7h24.887c.316 0 .553.31.553.7z" fill="url(#r)"/><path opacity=".5" d="m87.828 65.92-.869 4.33h-3.555l.948-4.33h3.476zm11.852 0-.87 4.33h-2.133l.948-4.33h2.055zm-10.35 0-.869 4.33h-.949l.949-4.33h.869z" fill="#fff"/><path opacity=".1" d="M109.002 69.78H82.93v.47h26.072v-.47z" fill="#4F3500"/><path d="M108.212 62.29v2.92c0 .39-.237.7-.632.7H82.693c-.316 0-.632-.31-.632-.7v-2.92c0-.4.237-.71.632-.71h24.887c.316.08.632.31.632.71z" fill="url(#s)"/><path opacity=".5" d="m88.935 61.66-.87 4.26H84.51l.869-4.26h3.556zm11.772 0-.87 4.26h-2.054l.869-4.26h2.055zm-10.35 0-.869 4.26h-.869l.869-4.26h.869z" fill="#fff"/><path opacity=".1" d="M108.212 65.44H82.14v.47h26.072v-.47z" fill="#4F3500"/><path d="M111.056 53.69v3.16c-.079.31-.316.47-.553.47H85.616c-.237 0-.474-.24-.553-.47v-3.16c0-.39.237-.71.553-.71h24.887c.316 0 .553.32.553.71z" fill="url(#t)"/><path opacity=".5" d="m89.962 52.98-.869 4.34h-3.556l.869-4.34h3.556zm11.772 0-.869 4.34H98.81l.87-4.34h2.054zm-10.35 0-.869 4.34h-.869l.869-4.34h.869z" fill="#fff"/><path opacity=".1" d="M111.056 56.85H84.984v.47h26.072v-.47z" fill="#4F3500"/><path d="M108.923 58.03v2.92c0 .39-.237.71-.632.71H83.404c-.316 0-.632-.32-.632-.71v-2.92c0-.39.237-.71.632-.71h24.887c.395 0 .632.32.632.71z" fill="url(#u)"/><path opacity=".5" d="m89.646 57.32-.87 4.34H85.22l.948-4.34h3.477zm11.851 0-.869 4.34h-2.134l.869-4.34h2.134zm-10.35 0-.869 4.34h-.948l.869-4.34h.948z" fill="#fff"/><path opacity=".1" d="M109.002 61.11H82.93v.47h26.072v-.47z" fill="#4F3500"/><path d="M107.659 70.8v2.92c0 .39-.237.71-.632.71H82.14c-.316 0-.632-.32-.632-.71V70.8c0-.39.237-.71.632-.71h24.887c.395 0 .632.32.632.71z" fill="url(#v)"/><path opacity=".5" d="m93.833 70.09-.87 4.34H89.41l.869-4.34h3.555zm11.772 0-.869 4.34h-2.054l.869-4.34h2.054zm-10.35 0-.869 4.34h-.869l.869-4.34h.869z" fill="#fff"/><path opacity=".1" d="M107.738 73.88H81.666v.47h26.072v-.47z" fill="#4F3500"/><path d="M108.291 96.66v2.92c0 .4-.237.711-.632.711H82.772c-.316 0-.632-.31-.632-.71v-2.92c0-.39.237-.71.632-.71h24.887c.395 0 .632.32.632.71z" fill="url(#w)"/><path opacity=".5" d="m89.013 95.95-.869 4.261h-3.555l.869-4.26h3.555zm11.773 0-.87 4.261h-2.054l.87-4.26h2.054zm-10.35 0-.869 4.261h-.869l.869-4.26h.869z" fill="#fff"/><path opacity=".1" d="M108.291 99.74H82.219v.471h26.072v-.47z" fill="#4F3500"/><path d="M108.765 92.33v2.92c0 .39-.237.71-.632.71H83.246c-.316 0-.632-.32-.632-.71v-2.92c0-.4.237-.71.632-.71h24.887c.395 0 .632.31.632.71z" fill="url(#x)"/><path opacity=".5" d="m89.488 91.62-.869 4.34h-3.556l.869-4.34h3.556zm11.851 0-.949 4.34h-2.054l.869-4.34h2.134zm-10.35 0-.869 4.34h-.948l.869-4.34h.948z" fill="#fff"/><path opacity=".1" d="M108.844 95.48H82.772v.47h26.072v-.47z" fill="#4F3500"/><path d="M113.822 87.99v2.92c0 .39-.237.71-.632.71H88.302c-.316 0-.632-.32-.632-.71v-2.92c0-.39.237-.71.632-.71h24.888c.395.08.632.4.632.71z" fill="url(#y)"/><path opacity=".5" d="m99.995 87.36-.869 4.26h-3.555l.869-4.26h3.555zm11.772 0-.869 4.26h-2.054l.869-4.26h2.054zm-10.349 0-.869 4.26h-.87l.87-4.26h.869z" fill="#fff"/><path opacity=".1" d="M113.822 91.15H87.749v.47h26.073v-.47z" fill="#4F3500"/><path d="M58.528 41.88c-.316 1.57-.79 3.07-1.501 4.49-.158.31-.237.63-.395.87a19.828 19.828 0 0 1-1.897 3.07c-.316.4-.552.71-.868 1.11a22.405 22.405 0 0 1-6.479 5.04c-.474.24-.948.47-1.422.63-.79.32-1.58.63-2.449.87-3.161.95-6.637 1.1-10.113.39-11.535-2.36-18.883-13.64-16.513-25.07C19.262 21.77 30.56 14.44 42.016 16.8c4.029.87 7.742 2.84 10.744 5.76 5.057 5.04 7.269 12.3 5.768 19.32z" fill="url(#z)"/><path fill-rule="evenodd" clip-rule="evenodd" d="M34.115 55.04c1.185.24 2.449.4 3.634.4 1.659 0 3.318-.24 4.978-.63.632-.16 1.264-.4 2.054-.71.197-.08.395-.18.593-.28.197-.1.395-.2.592-.28 2.054-1.02 3.871-2.44 5.451-4.25.118-.16.237-.317.355-.474.119-.158.238-.315.356-.475.632-.87 1.185-1.73 1.66-2.6.047-.19.121-.348.19-.495.048-.101.093-.198.125-.295.554-1.18 1.028-2.44 1.265-3.78 1.264-5.92-.632-12.07-4.899-16.33-2.449-2.52-5.609-4.17-9.007-4.88-4.74-1.03-9.48-.08-13.51 2.52-4.029 2.68-6.794 6.7-7.742 11.35-2.055 9.7 4.187 19.16 13.905 21.21zM28.742 23.9c2.687-1.74 5.768-2.68 8.928-2.68 1.106 0 2.291.16 3.556.47 3.081.63 5.925 2.13 8.216 4.42 3.871 3.86 5.531 9.38 4.425 14.82-.316 1.18-.632 2.36-1.186 3.47-.025.051-.058.109-.093.171a2.549 2.549 0 0 0-.223.46c-.474.87-.948 1.66-1.501 2.36-.237.32-.474.64-.711.87-1.422 1.58-3.081 2.92-4.977 3.87-.132.062-.277.126-.424.192-.207.091-.419.184-.603.278-.293.095-.573.191-.84.283-.38.131-.731.253-1.057.347-2.528.79-5.214.87-7.821.31-8.849-1.89-14.537-10.48-12.72-19.31a16.143 16.143 0 0 1 7.031-10.33z" fill="#F9B400"/><path d="M56.463 47.47c-.553 1.02-1.106 1.97-1.738 2.83-.316.4-.553.71-.869 1.11a22.405 22.405 0 0 1-6.479 5.04c-.474.24-.948.48-1.422.63-.79.32-1.58.64-2.449.87L30.312 44.71l4.266-2.21.474-1.03.079-2.05s-.158-7.49-.316-7.72c-.079-.08 1.264-4.89 1.264-4.89l1.501 3.39 1.896-3.39 18.172 18.13c-.079.4-1.027 2.21-1.185 2.53z" fill="url(#A)"/><path fill-rule="evenodd" clip-rule="evenodd" d="M36.08 48.25h-2.055v-3.39c-.961-.113-1.968-.1-2.951-.087-.31.004-.617.008-.92.008.24-1.196.298-1.574.347-1.893l.048-.307c0-.16.08-.16.237-.16h1.185c.632 0 .79-.16.79-.71v-8.28c0-.79-.474-1.1-1.106-1.1h-1.343v-1.97h3.555c.118 0 .177 0 .207-.03s.03-.09.03-.21v-3.23h2.054v3.39h1.501v-3.39h1.896v3.23c0 .077 0 .117.017.146.02.032.059.052.141.094 2.371.31 4.267 1.02 4.425 3.31.08.79-.079 1.57-.553 2.21-.306.456-.762.686-1.077.845l-.029.015c.077.033.173.068.282.108.672.245 1.85.674 2.325 2.102.237.63.237 1.26.158 1.97a3.926 3.926 0 0 1-.71 1.89c-.475.71-1.186 1.11-1.976 1.42-.948.32-1.897.48-2.924.55-.158 0-.237.08-.237.24v3.15h-1.896v-3.31h-1.5c.078 1.11.078 2.21.078 3.39zm0-9.93v4.26c.355-.013.683-.022.987-.03 1.452-.04 2.377-.066 3.357-.53.553-.31.95-.78 1.028-1.41.08-.71-.237-1.27-.87-1.66-1.106-.79-3.239-.71-4.503-.63zm0-1.97v-3.79c.195 0 .396-.005.602-.01.875-.024 1.835-.05 2.794.33 1.264.55 1.58 2.68-.474 3.23-.71.24-2.133.32-2.923.24z" fill="url(#B)"/><path d="M86.496 88.31c0 .64-.078 1.35-.236 1.98-.079.23-.08.39-.159.63-.158.79-.474 1.57-.869 2.36-.079.24-.158.4-.316.63-.316.71-.79 1.42-1.264 2.05-.237.24-.395.48-.553.71-1.185 1.42-2.686 2.53-4.345 3.391l-.948.48c-.553.23-1.027.39-1.58.55-.396.08-.791.23-1.186.31-.237.08-.474.08-.711.16-1.58.24-3.239.16-4.898-.16-7.585-1.57-12.562-9.06-10.982-16.63 1.58-7.65 9.086-12.54 16.671-10.96 2.686.55 5.135 1.89 7.11 3.86 3.002 2.68 4.503 6.62 4.266 10.64z" fill="url(#C)"/><path d="M72.354 75.78c-2.212 0-4.424.63-6.399 1.89-2.608 1.74-4.425 4.34-5.057 7.33-1.343 6.31 2.765 12.46 9.086 13.8 1.817.4 3.792.32 5.53-.24.395-.07.869-.23 1.343-.47.238-.08.475-.23.791-.39 1.343-.71 2.528-1.66 3.555-2.76.158-.16.316-.4.474-.63.395-.55.711-1.11 1.027-1.66.079-.16.158-.31.237-.47.395-.79.632-1.66.79-2.52.79-3.87-.395-7.81-3.16-10.57-1.58-1.58-3.634-2.68-5.847-3.15-.79-.08-1.58-.16-2.37-.16z" fill="#F9B400"/><path d="M85.221 88.23c0 .63-.079 1.18-.237 1.81-.079.16-.079.4-.158.55-.158.79-.474 1.5-.79 2.13-.079.16-.158.4-.237.55a8.696 8.696 0 0 1-1.185 1.82c-.158.23-.316.47-.553.71-1.106 1.26-2.449 2.28-3.95 3.07-.237.16-.553.24-.869.4-.474.15-.949.39-1.423.47-.316.08-.711.16-1.027.24l-9.48-10.17 2.844-1.74 2.291.95-.474-.95c0-.16 4.029-1.66 4.029-1.66l-1.738-4.25 5.373-1.42 7.584 7.49z" fill="url(#D)"/><path d="M74.95 79.71c1.659-.15 3.398 1.11 3.635 2.76.316 1.66-.949 3.08-2.45 3.47-.316.08-.632.16-1.027.16-.632.08-1.185.55-1.185 1.18-.079.63.395 1.18 1.027 1.34.237.08.474.08.79.08 1.659.16 2.845 1.5 2.924 3.16.079 1.89-1.581 3.46-3.477 3.31-2.37-.16-3.713-2.76-2.607-4.81.474-.95.237-1.58-.395-1.97-.553-.32-1.106-.24-1.58.23-.158.16-.316.4-.474.63-1.738 2.45-5.215 1.42-5.847-1.1-.79-3.39 3.398-5.36 5.531-2.92.237.24.395.48.553.79.395.47 1.027.71 1.501.47.79-.31 1.106-1.02.474-2.13-.79-1.57-.158-3.7 1.501-4.41.553-.16.79-.24 1.106-.24z" fill="url(#E)"/><path d="M120.706 87.53c0 .15-.079.31-.079.47-1.58 7.65-8.769 12.611-11.851 13.251-.237 0-.395.07-.553.07-12.325 3.55-24.492-7.41-21.806-20.42 1.976-9.46 11.219-15.53 20.7-13.56 9.165 1.82 15.327 10.8 13.589 20.19z" fill="url(#F)"/><path d="M95.74 72.63c-3.16 2.05-5.294 5.2-6.084 8.9-3.634 17.43 22.912 24.601 27.653 5.76 2.607-12.3-11.14-21.52-21.57-14.66z" fill="#F9B400"/><path d="M120.695 87.52c0 .16-.079.31-.079.47-1.58 7.65-8.77 12.621-11.851 13.251l-13.194-11.36 3.397-.78-3.871-3.39 6.795-.71s-3.477-3.08-3.635-3.24c0-.08 2.371-1.02 2.371-1.02.553-1.74 11.06 2.68 11.851-1.42l8.216 8.2z" fill="url(#G)"/><path d="M95.492 89.81c.79-2.53.79-2.29.79-2.53.079-.31-.711-.16 11.219-.16.553-1.81 1.185-3.62 1.738-5.44h-11.14c.079-.31-.08.08.79-2.36.079-.32.079-.32.474-.32h12.009c.949 0 1.739.56 1.818 1.66.079.71 0 .95-1.818 6.31-.474 1.49-2.054 2.6-3.16 2.76-.395.08.237.08-12.72.08z" fill="url(#H)"/><path d="M102.524 83.18c-.316.87-.553 1.66-.869 2.53h-6.637c.395-1.11.474-1.42.79-2.37.158-.24-.395-.16 6.716-.16z" fill="url(#I)"/><defs><linearGradient id="a" x1="78.29" y1="7.654" x2="81.181" y2="7.654" gradientUnits="userSpaceOnUse"><stop offset=".003" stop-color="#FFD44F"/><stop offset="1" stop-color="#FFA607"/></linearGradient><linearGradient id="b" x1="52.214" y1="88.424" x2="78.25" y2="88.424" gradientUnits="userSpaceOnUse"><stop offset=".003" stop-color="#FFD44F"/><stop offset="1" stop-color="#FFA607"/></linearGradient><linearGradient id="c" x1="51.454" y1="84.108" x2="77.492" y2="84.108" gradientUnits="userSpaceOnUse"><stop offset=".003" stop-color="#FFD44F"/><stop offset="1" stop-color="#FFA607"/></linearGradient><linearGradient id="d" x1="52.211" y1="79.803" x2="78.248" y2="79.803" gradientUnits="userSpaceOnUse"><stop offset=".003" stop-color="#FFD44F"/><stop offset="1" stop-color="#FFA607"/></linearGradient><linearGradient id="e" x1="49.391" y1="71.324" x2="75.427" y2="71.324" gradientUnits="userSpaceOnUse"><stop offset=".003" stop-color="#FFD44F"/><stop offset="1" stop-color="#FFA607"/></linearGradient><linearGradient id="f" x1="48.631" y1="67.018" x2="74.669" y2="67.018" gradientUnits="userSpaceOnUse"><stop offset=".003" stop-color="#FFD44F"/><stop offset="1" stop-color="#FFA607"/></linearGradient><linearGradient id="g" x1="49.388" y1="62.703" x2="75.425" y2="62.703" gradientUnits="userSpaceOnUse"><stop offset=".003" stop-color="#FFD44F"/><stop offset="1" stop-color="#FFA607"/></linearGradient><linearGradient id="h" x1="52.388" y1="58.368" x2="78.425" y2="58.368" gradientUnits="userSpaceOnUse"><stop offset=".003" stop-color="#FFD44F"/><stop offset="1" stop-color="#FFA607"/></linearGradient><linearGradient id="i" x1="48.108" y1="75.493" x2="74.146" y2="75.493" gradientUnits="userSpaceOnUse"><stop offset=".003" stop-color="#FFD44F"/><stop offset="1" stop-color="#FFA607"/></linearGradient><linearGradient id="j" x1="48.718" y1="101.331" x2="74.756" y2="101.331" gradientUnits="userSpaceOnUse"><stop offset=".003" stop-color="#FFD44F"/><stop offset="1" stop-color="#FFA607"/></linearGradient><linearGradient id="k" x1="49.216" y1="97.028" x2="75.253" y2="97.028" gradientUnits="userSpaceOnUse"><stop offset=".003" stop-color="#FFD44F"/><stop offset="1" stop-color="#FFA607"/></linearGradient><linearGradient id="l" x1="54.257" y1="92.723" x2="80.295" y2="92.723" gradientUnits="userSpaceOnUse"><stop offset=".003" stop-color="#FFD44F"/><stop offset="1" stop-color="#FFA607"/></linearGradient><linearGradient id="m" x1="80.012" y1="53.582" x2="115.511" y2="53.582" gradientUnits="userSpaceOnUse"><stop offset=".003" stop-color="#FFD44F"/><stop offset="1" stop-color="#FFA607"/></linearGradient><linearGradient id="n" x1="93.546" y1="39.719" x2="102.211" y2="46.08" gradientUnits="userSpaceOnUse"><stop stop-color="#FAA404"/><stop offset="1" stop-color="#FF7904" stop-opacity=".01"/></linearGradient><linearGradient id="o" x1="85.744" y1="87.344" x2="111.78" y2="87.344" gradientUnits="userSpaceOnUse"><stop offset=".003" stop-color="#FFD44F"/><stop offset="1" stop-color="#FFA607"/></linearGradient><linearGradient id="p" x1="84.984" y1="83.026" x2="111.022" y2="83.026" gradientUnits="userSpaceOnUse"><stop offset=".003" stop-color="#FFD44F"/><stop offset="1" stop-color="#FFA607"/></linearGradient><linearGradient id="q" x1="85.741" y1="78.728" x2="111.778" y2="78.728" gradientUnits="userSpaceOnUse"><stop offset=".003" stop-color="#FFD44F"/><stop offset="1" stop-color="#FFA607"/></linearGradient><linearGradient id="r" x1="82.921" y1="70.249" x2="108.957" y2="70.249" gradientUnits="userSpaceOnUse"><stop offset=".003" stop-color="#FFD44F"/><stop offset="1" stop-color="#FFA607"/></linearGradient><linearGradient id="s" x1="82.161" y1="65.926" x2="108.199" y2="65.926" gradientUnits="userSpaceOnUse"><stop offset=".003" stop-color="#FFD44F"/><stop offset="1" stop-color="#FFA607"/></linearGradient><linearGradient id="t" x1="85.018" y1="57.334" x2="111.054" y2="57.334" gradientUnits="userSpaceOnUse"><stop offset=".003" stop-color="#FFD44F"/><stop offset="1" stop-color="#FFA607"/></linearGradient><linearGradient id="u" x1="82.918" y1="61.631" x2="108.955" y2="61.631" gradientUnits="userSpaceOnUse"><stop offset=".003" stop-color="#FFD44F"/><stop offset="1" stop-color="#FFA607"/></linearGradient><linearGradient id="v" x1="81.638" y1="74.411" x2="107.676" y2="74.411" gradientUnits="userSpaceOnUse"><stop offset=".003" stop-color="#FFD44F"/><stop offset="1" stop-color="#FFA607"/></linearGradient><linearGradient id="w" x1="82.248" y1="100.251" x2="108.286" y2="100.251" gradientUnits="userSpaceOnUse"><stop offset=".003" stop-color="#FFD44F"/><stop offset="1" stop-color="#FFA607"/></linearGradient><linearGradient id="x" x1="82.745" y1="95.951" x2="108.783" y2="95.951" gradientUnits="userSpaceOnUse"><stop offset=".003" stop-color="#FFD44F"/><stop offset="1" stop-color="#FFA607"/></linearGradient><linearGradient id="y" x1="87.787" y1="91.641" x2="113.824" y2="91.641" gradientUnits="userSpaceOnUse"><stop offset=".003" stop-color="#FFD44F"/><stop offset="1" stop-color="#FFA607"/></linearGradient><linearGradient id="z" x1="16.473" y1="58.759" x2="58.998" y2="58.759" gradientUnits="userSpaceOnUse"><stop offset=".003" stop-color="#FFD44F"/><stop offset="1" stop-color="#FFA607"/></linearGradient><linearGradient id="A" x1="32.533" y1="43.311" x2="43.381" y2="51.685" gradientUnits="userSpaceOnUse"><stop stop-color="#FAA404"/><stop offset="1" stop-color="#FF7904" stop-opacity=".01"/></linearGradient><linearGradient id="B" x1="50.523" y1="38.723" x2="33.508" y2="27.97" gradientUnits="userSpaceOnUse"><stop stop-color="#FFE491"/><stop offset="1" stop-color="#fff"/></linearGradient><linearGradient id="C" x1="58.263" y1="101.488" x2="86.515" y2="101.488" gradientUnits="userSpaceOnUse"><stop offset=".003" stop-color="#FFD44F"/><stop offset="1" stop-color="#FFA607"/></linearGradient><linearGradient id="D" x1="70.578" y1="90.123" x2="75.813" y2="95.732" gradientUnits="userSpaceOnUse"><stop stop-color="#FAA404"/><stop offset="1" stop-color="#FF7904" stop-opacity=".01"/></linearGradient><linearGradient id="E" x1="84.182" y1="87.98" x2="73.273" y2="77.329" gradientUnits="userSpaceOnUse"><stop stop-color="#FFE491"/><stop offset="1" stop-color="#fff"/></linearGradient><linearGradient id="F" x1="85.934" y1="101.96" x2="120.983" y2="101.96" gradientUnits="userSpaceOnUse"><stop offset=".003" stop-color="#FFD44F"/><stop offset="1" stop-color="#FFA607"/></linearGradient><linearGradient id="G" x1="99.704" y1="87.908" x2="105.914" y2="96.394" gradientUnits="userSpaceOnUse"><stop stop-color="#FAA404"/><stop offset="1" stop-color="#FF7904" stop-opacity=".01"/></linearGradient><linearGradient id="H" x1="117.942" y1="85.552" x2="111.871" y2="73.01" gradientUnits="userSpaceOnUse"><stop stop-color="#FFE491"/><stop offset="1" stop-color="#fff"/></linearGradient><linearGradient id="I" x1="122.343" y1="89.618" x2="120.687" y2="78.521" gradientUnits="userSpaceOnUse"><stop stop-color="#FFE491"/><stop offset="1" stop-color="#fff"/></linearGradient></defs></svg>