<svg width="126" height="158" viewBox="0 0 63 79" fill="none" xmlns="http://www.w3.org/2000/svg"><path d="M60.18 58.95v3.15c-.079.32-.316.48-.553.48H34.74c-.237 0-.474-.24-.553-.48v-3.15c0-.4.237-.71.553-.71h24.808c.316.08.632.39.632.71z" fill="url(#a)"/><path opacity=".5" d="m39.086 58.32-.869 4.26h-3.556l.87-4.26h3.555zm11.772 0-.869 4.26h-2.055l.87-4.26h2.054zm-10.35 0-.869 4.26h-.869l.869-4.26h.869z" fill="#fff"/><path opacity=".1" d="M60.18 62.1H34.108v.48H60.18v-.48z" fill="#4F3500"/><path d="M59.39 54.69v2.92c0 .39-.237.71-.632.71H33.95c-.316 0-.632-.32-.632-.71v-2.92c0-.39.237-.71.632-.71h24.887c.316 0 .553.32.553.71z" fill="url(#b)"/><path opacity=".5" d="m40.113 53.98-.869 4.34h-3.556l.87-4.34h3.555zm11.772 0-.869 4.34h-2.054l.87-4.34h2.053zm-10.271 0-.948 4.34h-.869l.87-4.34h.947z" fill="#fff"/><path opacity=".1" d="M59.47 57.77H33.396v.47H59.47v-.47z" fill="#4F3500"/><path d="M60.18 50.35v2.92c0 .4-.237.71-.632.71H34.74c-.316 0-.632-.31-.632-.71v-2.92c0-.39.237-.7.632-.7h24.808c.316 0 .632.31.632.7z" fill="url(#c)"/><path opacity=".5" d="m40.903 49.65-.948 4.33h-3.477l.87-4.33h3.555zm11.772 0-.869 4.33h-2.054l.87-4.33h2.053zm-10.35 0-.869 4.33h-.869l.87-4.33h.868z" fill="#fff"/><path opacity=".1" d="M60.18 53.51H34.108v.47H60.18v-.47z" fill="#4F3500"/><path d="M57.336 41.92v3.15c-.079.32-.316.48-.553.48H31.896c-.237 0-.474-.24-.553-.48v-3.15c0-.4.237-.71.553-.71h24.887c.316 0 .553.31.553.71z" fill="url(#d)"/><path opacity=".5" d="m36.241 41.21-.869 4.26h-3.555l.87-4.26h3.554zm11.773 0-.869 4.26H45.09l.87-4.26h2.054zm-10.35 0-.869 4.26h-.869l.869-4.26h.869z" fill="#fff"/><path opacity=".1" d="M57.336 44.99H31.264v.48h26.072v-.48z" fill="#4F3500"/><path d="M56.546 37.58v2.92c0 .39-.237.71-.632.71H31.106c-.316 0-.632-.32-.632-.71v-2.92c0-.39.237-.71.632-.71h24.887c.316 0 .553.32.553.71z" fill="url(#e)"/><path opacity=".5" d="m37.269 36.87-.87 4.34h-3.555l.948-4.34h3.477zm11.851 0-.869 4.34h-2.134l.948-4.34h2.055zm-10.35 0-.869 4.34h-.948l.87-4.34h.947z" fill="#fff"/><path opacity=".1" d="M56.625 40.74H30.553v.47h26.072v-.47z" fill="#4F3500"/><path d="M57.336 33.25v2.91c0 .4-.237.71-.632.71H31.896c-.316 0-.632-.31-.632-.71v-2.91c0-.4.237-.71.632-.71h24.887c.316.07.553.31.553.71z" fill="url(#f)"/><path opacity=".5" d="m38.059 32.62-.869 4.25h-3.556l.869-4.25h3.556zm11.772 0-.869 4.25h-2.055l.87-4.25h2.054zm-10.35 0-.869 4.25h-.869l.87-4.25h.868z" fill="#fff"/><path opacity=".1" d="M57.336 36.4H31.264v.47h26.072v-.47z" fill="#4F3500"/><path d="M60.336 28.9v2.92c0 .39-.237.71-.632.71H34.896c-.316 0-.632-.32-.632-.71V28.9c0-.39.237-.71.632-.71h24.887c.316.08.553.32.553.71z" fill="url(#g)"/><path opacity=".5" d="m41.059 28.27-.869 4.26h-3.556l.869-4.26h3.556zm11.772 0-.869 4.26h-2.055l.87-4.26h2.054zm-10.35 0-.869 4.26h-.869l.87-4.26h.868z" fill="#fff"/><path opacity=".1" d="M60.336 32.05H34.264v.48h26.072v-.48z" fill="#4F3500"/><path d="M56.072 46.1v2.91c0 .4-.237.71-.632.71H30.632c-.316 0-.632-.31-.632-.71V46.1c0-.4.237-.71.632-.71h24.887c.237 0 .553.31.553.71z" fill="url(#h)"/><path opacity=".5" d="m42.246 45.39-.948 4.26h-3.476l.869-4.26h3.555zm11.772 0-.869 4.26h-2.054l.87-4.26h2.053zm-10.35 0-.869 4.26h-.948l.948-4.26h.87z" fill="#fff"/><path opacity=".1" d="M56.072 49.17H30v.47h26.072v-.47z" fill="#4F3500"/><path d="M56.704 71.88v2.92c0 .39-.237.71-.632.71H31.185c-.316 0-.632-.32-.632-.71v-2.92c0-.39.237-.71.632-.71h24.887c.316 0 .632.32.632.71z" fill="url(#i)"/><path opacity=".5" d="m37.348 71.17-.869 4.34h-3.477l.87-4.34h3.476zm11.851 0-.869 4.34h-2.134l.948-4.34h2.055zm-10.349 0-.87 4.34h-.948l.948-4.34h.87z" fill="#fff"/><path opacity=".1" d="M56.704 75.03H30.632v.48h26.072v-.48z" fill="#4F3500"/><path d="M57.178 67.62v2.92c0 .39-.237.71-.632.71H31.738c-.316 0-.632-.32-.632-.71v-2.92c0-.39.237-.71.632-.71h24.887c.237 0 .553.32.553.71z" fill="url(#j)"/><path opacity=".5" d="m37.901 66.91-.869 4.26h-3.556l.87-4.26H37.9zm11.772 0-.869 4.26h-2.055l.87-4.26h2.054zm-10.35 0-.869 4.26h-.869l.87-4.26h.868z" fill="#fff"/><path opacity=".1" d="M57.178 70.7H31.106v.47h26.072v-.47z" fill="#4F3500"/><path d="M62.235 63.29v2.91c0 .4-.237.71-.632.71H36.795c-.316 0-.633-.31-.633-.71v-2.91c0-.4.238-.71.633-.71h24.887c.237 0 .553.31.553.71z" fill="url(#k)"/><path opacity=".5" d="m48.33 62.58-.869 4.33h-3.556l.948-4.33h3.477zm11.851 0-.87 4.33h-2.133l.948-4.33h2.055zm-10.35 0-.869 4.33h-.948l.87-4.33h.947z" fill="#fff"/><path opacity=".1" d="M62.235 66.44H36.162v.47h26.073v-.47z" fill="#4F3500"/><path d="M62.135 21.36c-1.738 8.28-9.876 13.4-12.641 13.4-12.483 3.55-24.808-7.57-22.122-20.65C29.347 4.57 38.749-1.66 48.388.39c9.559 1.97 15.8 11.27 13.747 20.97z" fill="url(#l)"/><path d="M36.932 5.75c-3.161 2.13-5.373 5.28-6.163 9.07-3.713 17.66 23.228 24.91 28.047 5.83C61.424 8.19 47.519-1.19 36.932 5.75z" fill="#F9B400"/><path d="M60.149 22.38c-.237.71-.474 1.34-.791 1.97-.08.23-.237.47-.316.71-.395.87-.948 1.57-1.422 2.28-.237.32-.474.56-.711.87-1.343 1.58-3.002 2.92-4.898 3.79-.316.15-.711.31-1.027.47-.632.24-1.185.47-1.817.63h-.08l-4.345-4.26v-5.52l-6.794-5.2 3.87.95s-.157-6.79-.315-6.94c-.08-.08 2.133-.08 2.133-.08.553-1.82.316-.79 1.106-4.89l15.407 15.22z" fill="url(#m)"/><path d="m51.616 18.04-6.874 4.02-6.794-4.02 6.794-10.96 6.874 10.96z" fill="#fff"/><path d="m51.616 19.38-6.874 9.46-6.794-9.46 6.794 3.94 6.874-3.94z" fill="#fff"/><path d="m51.616 18.04-6.874 4.02-6.794-4.02 6.794-3 6.874 3z" fill="#FDF2C8"/><path opacity=".3" d="m44.742 23.32 6.874-3.94-6.874 9.46v-5.52zm6.874-5.28-6.874 4.02V7.08l6.874 10.96z" fill="#FACD35"/><path d="M30.26 59.75v3.16c-.08.31-.317.47-.554.47H4.819c-.237 0-.474-.24-.553-.47v-3.16c0-.39.237-.71.553-.71h24.887c.316 0 .554.32.554.71z" fill="url(#n)"/><path opacity=".5" d="m9.165 59.04-.869 4.34H4.74l.869-4.34h3.556zm11.851 0-.948 4.34h-2.055l.87-4.34h2.133zm-10.35 0-.87 4.34H8.85l.869-4.34h.948z" fill="#fff"/><path opacity=".1" d="M30.339 62.83H4.266v.47h26.073v-.47z" fill="#4F3500"/><path d="M29.548 55.42v2.91c0 .4-.237.71-.632.71H4.029c-.316 0-.632-.31-.632-.71v-2.91c0-.4.237-.71.632-.71h24.887c.316 0 .632.31.632.71z" fill="url(#o)"/><path opacity=".5" d="m10.192 54.71-.869 4.33H5.846l.869-4.33h3.477zm11.851 0-.869 4.33H19.04l.949-4.33h2.054zm-10.35 0-.869 4.33h-.948l.948-4.33h.869z" fill="#fff"/><path opacity=".1" d="M29.548 58.57H3.476v.47h26.072v-.47z" fill="#4F3500"/><path d="M30.259 51.16v2.92c0 .39-.237.71-.632.71H4.819c-.316 0-.632-.32-.632-.71v-2.92c0-.39.237-.71.632-.71h24.887c.316 0 .553.32.553.71z" fill="url(#p)"/><path opacity=".5" d="m10.982 50.45-.87 4.26H6.558l.87-4.26h3.555zm11.772 0-.869 4.26h-2.054l.87-4.26h2.053zm-10.271 0-.948 4.26h-.869l.869-4.26h.948z" fill="#fff"/><path opacity=".1" d="M30.338 54.23H4.266v.48h26.072v-.48z" fill="#4F3500"/><path d="M27.415 42.64v3.16c-.08.31-.316.47-.553.47H1.975c-.237 0-.474-.24-.553-.47v-3.16c0-.39.237-.7.553-.7h24.887c.316 0 .553.31.553.7z" fill="url(#q)"/><path opacity=".5" d="m6.32 41.94-.869 4.33H1.896l.948-4.33H6.32zm11.852 0-.87 4.33h-2.133l.948-4.33h2.055zm-10.35 0-.87 4.33h-.948l.949-4.33h.869z" fill="#fff"/><path opacity=".1" d="M27.494 45.8H1.422v.47h26.072v-.47z" fill="#4F3500"/><path d="M26.704 38.31v2.92c0 .39-.237.7-.632.7H1.185c-.316 0-.632-.31-.632-.7v-2.92c0-.4.237-.71.632-.71h24.887c.316.08.632.31.632.71z" fill="url(#r)"/><path opacity=".5" d="m7.427 37.68-.87 4.26H3.002l.869-4.26h3.556zm11.772 0-.87 4.26h-2.054l.869-4.26h2.055zm-10.35 0-.87 4.26h-.868l.869-4.26h.869z" fill="#fff"/><path opacity=".1" d="M26.704 41.46H.632v.47h26.072v-.47z" fill="#4F3500"/><path d="M29.548 29.71v3.16c-.08.31-.316.47-.553.47H4.108c-.237 0-.474-.24-.553-.47v-3.16c0-.39.237-.71.553-.71h24.887c.316 0 .553.32.553.71z" fill="url(#s)"/><path opacity=".5" d="m8.454 29-.869 4.34H4.029L4.898 29h3.556zm11.772 0-.869 4.34h-2.055l.869-4.34h2.055zm-10.35 0-.87 4.34h-.868L9.007 29h.869z" fill="#fff"/><path opacity=".1" d="M29.548 32.87H3.476v.47h26.072v-.47z" fill="#4F3500"/><path d="M27.415 34.05v2.92c0 .39-.237.71-.632.71H1.896c-.316 0-.632-.32-.632-.71v-2.92c0-.39.237-.71.632-.71h24.887c.395 0 .632.32.632.71z" fill="url(#t)"/><path opacity=".5" d="m8.138 33.34-.87 4.34H3.713l.948-4.34h3.477zm11.851 0-.87 4.34h-2.133l.869-4.34h2.134zm-10.35 0-.869 4.34h-.948l.869-4.34h.948z" fill="#fff"/><path opacity=".1" d="M27.494 37.13H1.422v.47h26.072v-.47z" fill="#4F3500"/><path d="M26.151 46.82v2.92c0 .39-.237.71-.632.71H.632c-.316 0-.632-.32-.632-.71v-2.92c0-.39.237-.71.632-.71h24.887c.395 0 .632.32.632.71z" fill="url(#u)"/><path opacity=".5" d="m12.325 46.11-.87 4.34H7.902l.869-4.34h3.555zm11.772 0-.87 4.34h-2.053l.869-4.34h2.054zm-10.35 0-.869 4.34h-.869l.869-4.34h.869z" fill="#fff"/><path opacity=".1" d="M26.23 49.9H.158v.47H26.23v-.47z" fill="#4F3500"/><path d="M26.783 72.68v2.92c0 .4-.237.71-.632.71H1.264c-.316 0-.632-.31-.632-.71v-2.92c0-.39.237-.71.632-.71H26.15c.395 0 .632.32.632.71z" fill="url(#v)"/><path opacity=".5" d="m7.505 71.97-.869 4.26H3.081l.87-4.26h3.554zm11.773 0-.87 4.26h-2.054l.869-4.26h2.055zm-10.35 0-.87 4.26H7.19l.869-4.26h.869z" fill="#fff"/><path opacity=".1" d="M26.783 75.76H.71v.47h26.072v-.47z" fill="#4F3500"/><path d="M27.257 68.35v2.92c0 .39-.237.71-.632.71H1.738c-.316 0-.632-.32-.632-.71v-2.92c0-.4.237-.71.632-.71h24.887c.395 0 .632.31.632.71z" fill="url(#w)"/><path opacity=".5" d="m7.98 67.64-.87 4.34H3.556l.869-4.34H7.98zm11.85 0-.948 4.34h-2.054l.869-4.34h2.134zm-10.35 0-.868 4.34h-.948l.869-4.34h.948z" fill="#fff"/><path opacity=".1" d="M27.336 71.5H1.264v.47h26.072v-.47z" fill="#4F3500"/><path d="M32.314 64.01v2.92c0 .39-.237.71-.632.71H6.794c-.316 0-.632-.32-.632-.71v-2.92c0-.39.237-.71.632-.71h24.888c.395.08.632.4.632.71z" fill="url(#x)"/><path opacity=".5" d="m18.487 63.38-.869 4.26h-3.555l.869-4.26h3.555zm11.772 0-.87 4.26h-2.053l.869-4.26h2.054zm-10.349 0-.87 4.26h-.87l.87-4.26h.87z" fill="#fff"/><path opacity=".1" d="M32.314 67.17H6.241v.47h26.073v-.47z" fill="#4F3500"/><path d="M39.198 63.55c0 .15-.08.31-.08.47-1.58 7.65-8.768 12.61-11.85 13.25-.237 0-.395.07-.553.07C14.39 80.89 2.223 69.93 4.909 56.92c1.976-9.46 11.219-15.53 20.7-13.56 9.165 1.82 15.327 10.8 13.589 20.19z" fill="url(#y)"/><path d="M14.232 48.65c-3.16 2.05-5.294 5.2-6.084 8.9C4.514 74.98 31.06 82.15 35.8 63.31c2.607-12.3-11.14-21.52-21.57-14.66z" fill="#F9B400"/><path d="M39.187 63.54c0 .16-.08.31-.08.47-1.58 7.65-8.77 12.62-11.85 13.25L14.063 65.9l3.397-.78-3.871-3.39 6.795-.71s-3.477-3.08-3.635-3.24c0-.08 2.37-1.02 2.37-1.02.554-1.74 11.06 2.68 11.852-1.42l8.216 8.2z" fill="url(#z)"/><path d="M13.984 65.83c.79-2.53.79-2.29.79-2.53.079-.31-.711-.16 11.219-.16.553-1.81 1.185-3.62 1.738-5.44H16.59c.079-.31-.08.08.79-2.36.079-.32.079-.32.474-.32h12.009c.949 0 1.739.56 1.818 1.66.079.71 0 .95-1.818 6.31-.474 1.49-2.054 2.6-3.16 2.76-.395.08.237.08-12.72.08z" fill="url(#A)"/><path d="M21.016 59.2c-.316.87-.553 1.66-.869 2.53H13.51c.395-1.11.474-1.42.79-2.37.158-.24-.395-.16 6.716-.16z" fill="url(#B)"/><defs><linearGradient id="a" x1="34.126" y1="62.614" x2="60.162" y2="62.614" gradientUnits="userSpaceOnUse"><stop offset=".003" stop-color="#FFD44F"/><stop offset="1" stop-color="#FFA607"/></linearGradient><linearGradient id="b" x1="33.366" y1="58.297" x2="59.404" y2="58.297" gradientUnits="userSpaceOnUse"><stop offset=".003" stop-color="#FFD44F"/><stop offset="1" stop-color="#FFA607"/></linearGradient><linearGradient id="c" x1="34.123" y1="53.992" x2="60.16" y2="53.992" gradientUnits="userSpaceOnUse"><stop offset=".003" stop-color="#FFD44F"/><stop offset="1" stop-color="#FFA607"/></linearGradient><linearGradient id="d" x1="31.303" y1="45.514" x2="57.339" y2="45.514" gradientUnits="userSpaceOnUse"><stop offset=".003" stop-color="#FFD44F"/><stop offset="1" stop-color="#FFA607"/></linearGradient><linearGradient id="e" x1="30.543" y1="41.207" x2="56.581" y2="41.207" gradientUnits="userSpaceOnUse"><stop offset=".003" stop-color="#FFD44F"/><stop offset="1" stop-color="#FFA607"/></linearGradient><linearGradient id="f" x1="31.3" y1="36.892" x2="57.337" y2="36.892" gradientUnits="userSpaceOnUse"><stop offset=".003" stop-color="#FFD44F"/><stop offset="1" stop-color="#FFA607"/></linearGradient><linearGradient id="g" x1="34.3" y1="32.557" x2="60.337" y2="32.557" gradientUnits="userSpaceOnUse"><stop offset=".003" stop-color="#FFD44F"/><stop offset="1" stop-color="#FFA607"/></linearGradient><linearGradient id="h" x1="30.02" y1="49.682" x2="56.058" y2="49.682" gradientUnits="userSpaceOnUse"><stop offset=".003" stop-color="#FFD44F"/><stop offset="1" stop-color="#FFA607"/></linearGradient><linearGradient id="i" x1="30.63" y1="75.521" x2="56.668" y2="75.521" gradientUnits="userSpaceOnUse"><stop offset=".003" stop-color="#FFD44F"/><stop offset="1" stop-color="#FFA607"/></linearGradient><linearGradient id="j" x1="31.128" y1="71.217" x2="57.165" y2="71.217" gradientUnits="userSpaceOnUse"><stop offset=".003" stop-color="#FFD44F"/><stop offset="1" stop-color="#FFA607"/></linearGradient><linearGradient id="k" x1="36.169" y1="66.912" x2="62.207" y2="66.912" gradientUnits="userSpaceOnUse"><stop offset=".003" stop-color="#FFD44F"/><stop offset="1" stop-color="#FFA607"/></linearGradient><linearGradient id="l" x1="27.05" y1="35.432" x2="62.549" y2="35.432" gradientUnits="userSpaceOnUse"><stop offset=".003" stop-color="#FFD44F"/><stop offset="1" stop-color="#FFA607"/></linearGradient><linearGradient id="m" x1="40.584" y1="21.569" x2="49.248" y2="27.93" gradientUnits="userSpaceOnUse"><stop stop-color="#FAA404"/><stop offset="1" stop-color="#FF7904" stop-opacity=".01"/></linearGradient><linearGradient id="n" x1="4.236" y1="63.363" x2="30.272" y2="63.363" gradientUnits="userSpaceOnUse"><stop offset=".003" stop-color="#FFD44F"/><stop offset="1" stop-color="#FFA607"/></linearGradient><linearGradient id="o" x1="3.476" y1="59.046" x2="29.514" y2="59.046" gradientUnits="userSpaceOnUse"><stop offset=".003" stop-color="#FFD44F"/><stop offset="1" stop-color="#FFA607"/></linearGradient><linearGradient id="p" x1="4.233" y1="54.747" x2="30.27" y2="54.747" gradientUnits="userSpaceOnUse"><stop offset=".003" stop-color="#FFD44F"/><stop offset="1" stop-color="#FFA607"/></linearGradient><linearGradient id="q" x1="1.413" y1="46.269" x2="27.449" y2="46.269" gradientUnits="userSpaceOnUse"><stop offset=".003" stop-color="#FFD44F"/><stop offset="1" stop-color="#FFA607"/></linearGradient><linearGradient id="r" x1=".653" y1="41.946" x2="26.691" y2="41.946" gradientUnits="userSpaceOnUse"><stop offset=".003" stop-color="#FFD44F"/><stop offset="1" stop-color="#FFA607"/></linearGradient><linearGradient id="s" x1="3.51" y1="33.354" x2="29.546" y2="33.354" gradientUnits="userSpaceOnUse"><stop offset=".003" stop-color="#FFD44F"/><stop offset="1" stop-color="#FFA607"/></linearGradient><linearGradient id="t" x1="1.41" y1="37.651" x2="27.447" y2="37.651" gradientUnits="userSpaceOnUse"><stop offset=".003" stop-color="#FFD44F"/><stop offset="1" stop-color="#FFA607"/></linearGradient><linearGradient id="u" x1=".13" y1="50.431" x2="26.168" y2="50.431" gradientUnits="userSpaceOnUse"><stop offset=".003" stop-color="#FFD44F"/><stop offset="1" stop-color="#FFA607"/></linearGradient><linearGradient id="v" x1=".74" y1="76.271" x2="26.778" y2="76.271" gradientUnits="userSpaceOnUse"><stop offset=".003" stop-color="#FFD44F"/><stop offset="1" stop-color="#FFA607"/></linearGradient><linearGradient id="w" x1="1.237" y1="71.971" x2="27.275" y2="71.971" gradientUnits="userSpaceOnUse"><stop offset=".003" stop-color="#FFD44F"/><stop offset="1" stop-color="#FFA607"/></linearGradient><linearGradient id="x" x1="6.279" y1="67.66" x2="32.316" y2="67.66" gradientUnits="userSpaceOnUse"><stop offset=".003" stop-color="#FFD44F"/><stop offset="1" stop-color="#FFA607"/></linearGradient><linearGradient id="y" x1="4.426" y1="77.979" x2="39.475" y2="77.979" gradientUnits="userSpaceOnUse"><stop offset=".003" stop-color="#FFD44F"/><stop offset="1" stop-color="#FFA607"/></linearGradient><linearGradient id="z" x1="18.196" y1="63.928" x2="24.406" y2="72.413" gradientUnits="userSpaceOnUse"><stop stop-color="#FAA404"/><stop offset="1" stop-color="#FF7904" stop-opacity=".01"/></linearGradient><linearGradient id="A" x1="36.434" y1="61.571" x2="30.363" y2="49.03" gradientUnits="userSpaceOnUse"><stop stop-color="#FFE491"/><stop offset="1" stop-color="#fff"/></linearGradient><linearGradient id="B" x1="40.835" y1="65.637" x2="39.179" y2="54.54" gradientUnits="userSpaceOnUse"><stop stop-color="#FFE491"/><stop offset="1" stop-color="#fff"/></linearGradient></defs></svg>