<svg width="193.6" height="206" viewBox="0 0 121 150" fill="none" xmlns="http://www.w3.org/2000/svg"><path d="M21.434 148.777H120" stroke="#2B323C" stroke-width="2" stroke-linecap="round" stroke-linejoin="round"/><path d="M14.565 148.777h1.987" stroke="#4F5767" stroke-width="1.5" stroke-linecap="round" stroke-linejoin="round"/><path d="m46.676 38.458.745-.911c.165-.166-.083-.498-.331-.415l-1.076.415c-.414.165-.828.083-1.242-.166l-.91-.746c-.165-.166-.496.083-.414.332l.414 1.077c.166.414.083.829-.165 1.243l-.662.829c-.166.166.082.497.331.415l1.075-.415c.414-.166.828-.083 1.242.166l.91.746c.166.166.497-.083.414-.332l-.414-1.077c-.248-.415-.165-.829.083-1.161z" fill="url(#a)"/><path d="M40.469 148.777h-7.366l-1.489-4.475h10.345l-1.49 4.475zm55.283 0h-7.449l-1.489-4.475h10.344l-1.406 4.475z" fill="#2D323E"/><path d="M109.572 145.048H21.848a5.55 5.55 0 0 1-5.545-5.554V50.642a5.55 5.55 0 0 1 5.545-5.553h87.724a5.55 5.55 0 0 1 5.545 5.553v88.852a5.55 5.55 0 0 1-5.545 5.554z" fill="#4F5767"/><path d="M104.193 137.671H27.31c-2.317 0-4.303-1.906-4.303-4.31V55.45c0-2.321 1.903-4.31 4.303-4.31h76.883c2.317 0 4.303 1.906 4.303 4.31v77.911a4.277 4.277 0 0 1-4.303 4.31z" fill="#2D323E"/><g opacity=".8"><g opacity=".8"><path opacity=".8" d="M68.276 129.797v1.906c0 .249-.166.415-.414.415H49.241c-.248 0-.413-.166-.413-.415v-1.906c0-.249.165-.415.413-.415h18.621c.248 0 .414.166.414.415z" fill="url(#b)"/><path opacity=".5" d="m53.131 129.382-.662 2.736h-2.648l.662-2.736h2.648zm9.6 0-.662 2.736h-1.573l.662-2.736h1.573zm-8.441 0-.662 2.736h-.663l.663-2.736h.662z" fill="#fff"/><path opacity=".1" d="M68.276 131.869H48.745v.332h19.531v-.332z" fill="#4F3500"/></g><g opacity=".8"><path opacity=".8" d="M69.848 127.062v1.906c0 .249-.166.415-.414.415H50.731c-.249 0-.414-.166-.414-.415v-1.906c0-.249.165-.415.414-.415h18.62c.331 0 .497.166.497.415z" fill="url(#c)"/><path opacity=".5" d="m54.041 126.647-.662 2.736h-2.648l.662-2.736h2.648zm8.855 0-.662 2.736h-1.573l.662-2.736h1.573zm-7.779 0-.663 2.736h-.662l.662-2.736h.663z" fill="#fff"/><path opacity=".1" d="M69.847 129.051H50.316v.332h19.531v-.332z" fill="#4F3500"/></g><g opacity=".8"><path opacity=".8" d="M69.269 124.326v1.907c0 .248-.166.414-.414.414H50.234c-.248 0-.414-.166-.414-.414v-1.907c0-.248.166-.414.414-.414h18.62c.249-.083.415.166.415.414z" fill="url(#d)"/><path opacity=".5" d="m54.786 123.829-.662 2.818h-2.648l.662-2.818h2.648zm8.855 0-.662 2.818h-1.49l.662-2.818h1.49zm-7.697 0-.662 2.818h-.745l.663-2.818h.744z" fill="#fff"/><path opacity=".1" d="M69.268 126.316h-19.53v.331h19.53v-.331z" fill="#4F3500"/></g><g opacity=".8"><path opacity=".8" d="M69.848 135.35v1.906c0 .249-.166.415-.414.415H50.731c-.249 0-.414-.166-.414-.415v-1.906c0-.249.165-.414.414-.414h18.62c.331 0 .497.165.497.414z" fill="url(#e)"/><path opacity=".5" d="m55.365 134.936-.662 2.735h-2.648l.662-2.735h2.648zm8.855 0-.662 2.735h-1.573l.663-2.735h1.572zm-7.78 0-.661 2.735h-.662l.662-2.735h.662z" fill="#fff"/><path opacity=".1" d="M69.847 137.339H50.316v.332h19.531v-.332z" fill="#4F3500"/></g><g opacity=".8"><path opacity=".8" d="M66.786 132.615v1.906c0 .249-.166.415-.414.415H47.669c-.249 0-.414-.166-.414-.415v-1.906c0-.249.165-.414.414-.414h18.62c.249-.083.497.165.497.414z" fill="url(#f)"/><path opacity=".5" d="m56.358 132.118-.662 2.818h-2.648l.662-2.818h2.648zm8.855 0-.662 2.818h-1.572l.662-2.818h1.572zm-7.696 0-.662 2.818h-.745l.662-2.818h.745z" fill="#fff"/><path opacity=".1" d="M66.786 134.604H47.255v.332h19.531v-.332z" fill="#4F3500"/></g><g opacity=".8"><path opacity=".8" d="M69.848 121.509v1.906c0 .249-.166.414-.414.414H50.731c-.249 0-.414-.165-.414-.414v-1.906c0-.249.165-.415.414-.415h18.62c.331 0 .497.166.497.415z" fill="url(#g)"/><path opacity=".5" d="m55.365 121.094-.662 2.735h-2.648l.662-2.735h2.648zm8.855 0-.662 2.735h-1.573l.663-2.735h1.572zm-7.78 0-.661 2.735h-.662l.662-2.735h.662z" fill="#fff"/><path opacity=".1" d="M69.847 123.498H50.316v.331h19.531v-.331z" fill="#4F3500"/></g><g opacity=".8"><path opacity=".8" d="M66.786 118.773v1.907c0 .248-.165.414-.414.414H47.669c-.248 0-.414-.166-.414-.414v-1.907c0-.248.166-.414.414-.414H66.29c.248-.083.496.166.496.414z" fill="url(#h)"/><path opacity=".5" d="m56.358 118.276-.662 2.818h-2.648l.662-2.818h2.648zm8.855 0-.662 2.818h-1.572l.662-2.818h1.572zm-7.696 0-.662 2.818h-.745l.662-2.818h.745z" fill="#fff"/><path opacity=".1" d="M66.786 120.763H47.255v.331h19.531v-.331z" fill="#4F3500"/></g></g><path d="M85.821 90.427c-16.883 1.74-42.869 1.326-62.814 1.906V79.901c.248-.581.496-1.078.662-1.575.414-.995 1.241-1.824 2.234-2.155.166-.083.414-.166.58-.166 2.234-.663 4.8-.414 7.2.331 1.241.415 2.4.829 3.476 1.327 2.234 1.077 4.469 2.32 6.786 3.149 1.158.415 2.234.746 3.393.912.827.166 1.738.166 2.565.083 4.387-.332 8.028-3.316 12.249-4.725 5.131-1.74 11.007-.911 15.393 2.238 2.317 1.575 4.303 4.393 3.31 6.963a1.149 1.149 0 0 0 0 .746c.662 2.155 7.531 3.149 4.966 3.398z" fill="url(#i)"/><path d="M47.338 81.724c-1.16-.166-2.317-.497-3.393-.912-2.317-.828-4.552-2.072-6.786-3.149a31.392 31.392 0 0 0-1.656-.746s-.082 0-.082-.083c-.497-.249-1.076-.415-1.573-.58h-.083c-2.4-.746-4.965-1.078-7.2-.332 2.732 5.471 9.6 8.289 15.394 5.968 1.738.414 3.558.331 5.379-.166zm38.483 8.703c-16.883 1.74-42.869 1.326-62.814 1.906v-7.459c1.986-.083 3.807 1.74 5.627 2.818 3.394 1.906 7.614 1.243 11.504.746 13.49-1.907 27.062-1.741 40.717-1.244.662 1.99 7.531 2.984 4.966 3.233z" fill="#F8AA00"/><path d="M108.414 90.427H22.18v7.459h86.234v-7.459z" fill="#4F5767"/><path opacity=".4" d="M94.014 100.705c2.468 0 4.469-3.229 4.469-7.211 0-3.983-2.001-7.211-4.469-7.211-2.468 0-4.469 3.228-4.469 7.211 0 3.982 2.001 7.211 4.469 7.211z" fill="url(#j)"/><path d="M90.703 88.272h-5.462v10.36h5.462v-10.36z" fill="#2D323E"/><path d="M100.386 51.886 72 40.862a9.638 9.638 0 0 0-2.4-3.067h-5.959c-1.241.083-2.234 1.161-2.234 2.653v106.838c0 1.491 1.076 2.569 2.317 2.652H69.6l.745-2.155 30.041-10.278c1.904-.663 3.228-2.652 3.228-4.89V56.693c-.166-2.155-1.407-4.144-3.228-4.807z" fill="#4F5767"/><path d="m70.18 37.961 35.999 13.925c1.821.745 3.063 2.652 3.063 4.807v75.922c0 2.238-1.325 4.227-3.228 4.89l-35.917 12.35c-1.49.497-2.98-.746-2.98-2.57V40.447c0-1.823 1.573-3.066 3.063-2.486z" fill="#606979"/><path opacity=".4" d="M99.807 104.351c.828-2.072 1.241-4.558 1.241-7.128 0-2.486-.413-4.89-1.158-6.962l4.634-7.708c.414-.746.414-2.072 0-3.067-.414-.994-1.158-1.243-1.655-.497l-4.883 7.625c-1.241-1.657-2.731-2.818-4.469-3.149-1.903-.415-3.724.248-5.296 1.74l-7.862-13.013s-.083-.083-.083-.165a.179.179 0 0 0-.166-.166l-.082-.083c-.497-.415-1.49-.249-2.4.497-.745.663-1.242 1.492-1.159 2.155 0 .166.083.332.166.415.082.248.248.497.413.746l8.525 13.261c-1.076 2.321-1.656 5.139-1.656 8.206 0 3.232.662 6.133 1.821 8.454l-8.607 13.427c-.165.249-.331.58-.414.829-.082.166-.082.249-.165.414-.083.581.331 1.327.993 1.99.91.828 1.986 1.077 2.565.663.083-.083.166-.249.249-.332l8.027-13.261c1.49 1.326 3.311 1.906 5.131 1.574 1.656-.331 3.145-1.409 4.304-2.9l5.048 7.874c.248.331.579.497.828.414.331-.083.579-.414.827-.912.414-.994.414-2.321 0-3.067l-4.717-7.874z" fill="#2D323E"/><path d="M89.048 100.124c2.011 0 3.642-2.968 3.642-6.63 0-3.663-1.631-6.631-3.642-6.631s-3.641 2.968-3.641 6.631c0 3.662 1.63 6.63 3.641 6.63z" fill="#2D323E"/><path d="M104.772 93.659c0-5.884-2.317-10.94-5.544-12.93v-.911h-3.311c-4.551.248-8.193 6.299-8.193 13.758 0 7.46 3.642 13.511 8.193 13.759h3.311v-.911c3.227-1.824 5.544-6.797 5.544-12.765z" fill="#CED7E2"/><path d="M106.345 100.87c.828-2.072 1.241-4.558 1.241-7.128 0-2.486-.413-4.89-1.158-6.962l4.634-7.708c.414-.746.414-2.073 0-3.067-.413-.995-1.158-1.243-1.655-.497l-4.883 7.625c-1.241-1.658-2.731-2.818-4.469-3.15-1.903-.414-3.724.249-5.296 1.741l-7.862-13.013s-.083-.083-.083-.166-.083-.166-.165-.166l-.083-.082c-.497-.415-1.49-.249-2.4.497-.745.663-1.242 1.492-1.159 2.155 0 .166.083.331.166.414.082.249.248.498.413.746l8.525 13.262c-1.076 2.321-1.656 5.139-1.656 8.205 0 3.233.663 6.134 1.821 8.455l-8.607 13.427c-.165.248-.331.58-.414.829-.082.165-.082.248-.165.414-.083.58.331 1.326.993 1.989.91.829 1.986 1.078 2.566.663.082-.083.165-.248.248-.331l8.027-13.262c1.49 1.326 3.311 1.907 5.131 1.575 1.656-.331 3.145-1.409 4.304-2.901l5.048 7.874c.248.332.579.498.828.415.331-.083.579-.415.827-.912.414-.995.414-2.321 0-3.067l-4.717-7.874z" fill="#E6EDF5"/><path d="M85.738 71.115c-.993.829-2.069.994-2.483.331-.083-.165-.165-.248-.165-.414-.083-.663.413-1.492 1.158-2.155.911-.746 1.904-.912 2.4-.497 0 0 .083 0 .083.082l.083.083.082.083c.249.663-.248 1.741-1.158 2.487zm1.159 47.907c0 .083 0 .083-.083.166 0 0 0 .083-.083.083 0 0 0 .082-.082.082l-.083.083c-.58.415-1.655.166-2.566-.663-.662-.58-1.076-1.409-.993-1.989a.63.63 0 0 1 .166-.414c0-.083.082-.083.082-.166.083-.083.249-.166.414-.249.58-.166 1.49.083 2.317.746.828.746 1.159 1.658.911 2.321zm15.558-25.528c0-2.321-.662-4.393-1.738-5.471v-.829h-1.655c-1.903 0-3.393 2.818-3.393 6.3 0 3.481 1.49 6.299 3.393 6.299h1.655v-.829c.993-1.078 1.738-3.15 1.738-5.47z" fill="#CED7E2"/><path d="M100.966 99.793c1.874 0 3.393-2.82 3.393-6.299 0-3.479-1.519-6.3-3.393-6.3-1.874 0-3.394 2.821-3.394 6.3 0 3.479 1.52 6.299 3.394 6.299z" fill="#fff"/><path d="M49.584 77.505c-7.945 10.361-24.165 2.735-21.517-9.78 1.986-9.449 13.655-12.93 20.441-6.134 4.304 4.31 4.718 11.19 1.076 15.914z" fill="url(#k)"/><path d="M51.559 73.601c-1.242 4.559-5.38 7.957-9.435 8.537l-7.117-7.128 2.814-1.492.331-.663c.414-8.122-.993-3.895.745-9.78l.993 2.238 1.241-2.238 10.428 10.526z" fill="url(#l)"/><path fill-rule="evenodd" clip-rule="evenodd" d="M38.814 77.331h-1.407v-2.238c-.828-.083-1.738-.083-2.566-.083l.103-.682c.07-.458.085-.568.146-.809 0-.083.082-.083.165-.083h.828c.413 0 .496-.166.496-.498v-5.553c0-.58-.331-.746-.745-.746h-.91v-1.326h2.4c.166 0 .166 0 .166-.166v-2.155h1.324v2.238h.993v-2.238h1.24v2.155c0 .083 0 .166.084.166 1.572.166 2.814.663 2.979 2.238.083.497 0 1.077-.331 1.492-.248.331-.496.497-.745.58l.153.058c.468.172 1.29.473 1.585 1.434.166.414.166.829.083 1.326 0 .497-.165.912-.414 1.326-.331.497-.745.746-1.324.912a5.114 5.114 0 0 1-1.903.331c-.083 0-.166 0-.166.166v2.155h-1.241v-2.238h-.993v2.238zm0-6.548v2.818c.306-.018.577-.028.822-.037.88-.033 1.427-.053 2.074-.377.414-.166.662-.497.662-.912 0-.497-.165-.829-.58-1.077-.744-.498-2.151-.498-2.978-.415zm0-1.326v-2.569c.107 0 .218-.002.333-.004.596-.012 1.29-.025 1.984.252.827.332 1.076 1.741-.331 2.155-.497.166-1.49.249-1.986.166z" fill="url(#m)"/><path d="m33.6 60.92 1.159-.331a.26.26 0 0 0 0-.498L33.6 59.76c-.414-.083-.745-.415-.91-.912l-.331-1.16a.259.259 0 0 0-.497 0l-.248 1.16c-.083.414-.414.746-.91.912l-1.159.331a.26.26 0 0 0 0 .498l1.159.331c.413.083.744.415.91.912l.331 1.16a.259.259 0 0 0 .497 0l.331-1.16c.082-.497.413-.829.827-.912zm-3.807 4.31.745-.166c.166-.083.166-.248 0-.331l-.745-.249c-.248-.083-.496-.249-.579-.58l-.166-.746c-.082-.166-.248-.166-.331 0l-.165.746c-.083.249-.248.497-.579.58l-.745.166c-.166.083-.166.248 0 .331l.745.166c.248.083.496.249.579.58l.165.746c.083.166.249.166.331 0l.166-.746c.083-.248.331-.414.579-.497z" fill="#fff"/><path d="M30.869 82.387h15.227" stroke="#F8AA00" stroke-linecap="round" stroke-linejoin="round"/><path d="M50.565 134.853v2.321c0 .331-.248.58-.579.58H27.31a.566.566 0 0 1-.579-.58v-2.321c0-.332.248-.58.579-.58h22.676c.331.083.579.331.579.58z" fill="url(#n)"/><path opacity=".5" d="m32.11 134.356-.827 3.315h-3.228l.828-3.315h3.227zm11.587 0-.828 3.315h-1.82l.744-3.315h1.904zm-10.262 0-.828 3.315h-.828l.828-3.315h.828z" fill="#fff"/><path opacity=".1" d="M50.483 137.339H26.731v.415h23.752v-.415z" fill="#4F3500"/><path d="M52.386 131.455v2.32a.566.566 0 0 1-.579.581H29.131a.566.566 0 0 1-.579-.581v-2.32c0-.332.248-.58.579-.58h22.676c.331.082.579.331.579.58z" fill="url(#o)"/><path opacity=".5" d="m33.104 130.957-.745 3.399h-3.227l.744-3.399h3.228zm10.841 0-.828 3.399h-1.903l.827-3.399h1.904zm-9.435 0-.828 3.399h-.827l.827-3.399h.828z" fill="#fff"/><path opacity=".1" d="M52.386 133.941H28.635v.415h23.751v-.415z" fill="#4F3500"/><path d="M51.724 128.139v2.321c0 .332-.248.58-.579.58H28.469a.565.565 0 0 1-.579-.58v-2.321c0-.331.248-.58.579-.58h22.676c.331 0 .579.249.579.58z" fill="url(#p)"/><path opacity=".5" d="m34.096 127.559-.827 3.398h-3.228l.828-3.398h3.227zm10.759 0-.744 3.398h-1.904l.828-3.398h1.82zm-9.435 0-.744 3.398h-.828l.745-3.398h.827z" fill="#fff"/><path opacity=".1" d="M51.724 130.543H27.972v.414h23.752v-.414z" fill="#4F3500"/><path d="M50.565 118.027v2.321c0 .332-.248.58-.579.58H27.31a.565.565 0 0 1-.579-.58v-2.321c0-.331.248-.58.579-.58h22.676c.331 0 .579.249.579.58z" fill="url(#q)"/><path opacity=".5" d="m32.11 117.447-.827 3.398h-3.228l.828-3.398h3.227zm11.587 0-.828 3.398h-1.82l.744-3.398h1.904zm-10.262 0-.828 3.398h-.828l.828-3.398h.828z" fill="#fff"/><path opacity=".1" d="M50.483 120.431H26.731v.414h23.752v-.414z" fill="#4F3500"/><path d="M52.386 114.629v2.321c0 .331-.248.58-.579.58H29.131a.566.566 0 0 1-.579-.58v-2.321c0-.332.248-.58.579-.58h22.676c.331 0 .579.248.579.58z" fill="url(#r)"/><path opacity=".5" d="m33.104 114.049-.745 3.398h-3.227l.744-3.398h3.228zm10.841 0-.828 3.398h-1.903l.827-3.398h1.904zm-9.435 0-.828 3.398h-.827l.827-3.398h.828z" fill="#fff"/><path opacity=".1" d="M52.386 117.032H28.635v.415h23.751v-.415z" fill="#4F3500"/><path d="M51.724 111.231v2.321c0 .331-.248.58-.579.58H28.469a.566.566 0 0 1-.579-.58v-2.321c0-.332.248-.58.579-.58h22.676c.331.083.579.331.579.58z" fill="url(#s)"/><path opacity=".5" d="m34.096 110.734-.827 3.315h-3.228l.828-3.315h3.227zm10.759 0-.744 3.315h-1.904l.828-3.315h1.82zm-9.435 0-.744 3.315h-.828l.745-3.315h.827z" fill="#fff"/><path opacity=".1" d="M51.724 113.717H27.972v.415h23.752v-.415z" fill="#4F3500"/><path d="M52.386 124.741v2.321c0 .331-.248.58-.579.58H29.131a.566.566 0 0 1-.579-.58v-2.321c0-.332.248-.58.579-.58h22.676c.331 0 .579.248.579.58z" fill="url(#t)"/><path opacity=".5" d="m34.758 124.161-.744 3.398h-3.228l.745-3.398h3.227zm10.842 0-.827 3.398h-1.904l.828-3.398H45.6zm-9.435 0-.827 3.398h-.828l.828-3.398h.827z" fill="#fff"/><path opacity=".1" d="M52.386 127.228H28.635v.414h23.751v-.414z" fill="#4F3500"/><path d="M48.662 121.343v2.32a.566.566 0 0 1-.579.581H25.407a.566.566 0 0 1-.579-.581v-2.32c0-.332.248-.581.579-.581h22.676c.331.083.579.332.579.581z" fill="url(#u)"/><path opacity=".5" d="m36 120.845-.828 3.316h-3.227l.827-3.316H36zm10.759 0-.745 3.316H44.11l.828-3.316h1.821zm-9.435 0-.745 3.316h-.827l.744-3.316h.828z" fill="#fff"/><path opacity=".1" d="M48.662 123.829H24.911v.415h23.751v-.415z" fill="#4F3500"/><path d="M52.386 107.915v2.321c0 .332-.248.58-.579.58H29.131a.565.565 0 0 1-.579-.58v-2.321c0-.331.248-.58.579-.58h22.676c.331 0 .579.249.579.58z" fill="url(#v)"/><path opacity=".5" d="m34.758 107.335-.744 3.398h-3.228l.745-3.398h3.227zm10.842 0-.827 3.398h-1.904l.828-3.398H45.6zm-9.435 0-.827 3.398h-.828l.828-3.398h.827z" fill="#fff"/><path opacity=".1" d="M52.386 110.319H28.635v.415h23.751v-.415z" fill="#4F3500"/><path d="M48.662 104.517v2.321c0 .331-.248.58-.579.58H25.407a.566.566 0 0 1-.579-.58v-2.321c0-.331.248-.58.579-.58h22.676c.331 0 .579.249.579.58z" fill="url(#w)"/><path opacity=".5" d="m36 103.937-.828 3.398h-3.227l.827-3.398H36zm10.759 0-.745 3.398H44.11l.828-3.398h1.821zm-9.435 0-.745 3.398h-.827l.744-3.398h.828z" fill="#fff"/><path opacity=".1" d="M48.662 106.921H24.911v.414h23.751v-.414z" fill="#4F3500"/><path d="m21.352 21.467-1.242 6.548-1.903.746-4.221 1.575c-1.241.414-2.565.165-3.476-.663l-.993-.912-.827.248c-1.407.498-2.98 0-3.89-1.16l-.166-.249c-1.489.581-3.144 0-4.055-1.326L0 25.445l11.669-5.056c1.903-.828 4.138-.994 6.124-.414.414.083.745.249 1.159.414l2.4 1.078z" fill="#6C7384"/><path d="m4.635 27.6 4.882-2.155m0 3.316 4.883-2.238" stroke="#1E1F28" stroke-linecap="round" stroke-linejoin="round"/><path d="m51.393 4.973.083.249c.414 1.409-.248 2.984-1.49 3.73l-.745.497.083 1.326c.083 1.243-.579 2.486-1.655 3.15l-4.221 2.652-1.407.829-5.876-3.067.663-2.487c.082-.331.165-.663.331-.911.744-2.072 2.317-3.73 4.22-4.808L52.552 0l.331.995c.413 1.492-.166 3.149-1.49 3.978z" fill="#6C7384"/><path d="m51.393 4.973-4.8 2.487m2.565 2.072-4.8 2.486" stroke="#1E1F28" stroke-linecap="round" stroke-linejoin="round"/><path d="M43.625 20.647c.249.912.332 1.823.332 2.818v.58c0 .746-.083 1.409-.249 2.155-.083.249-.082.58-.165.829-.414 1.575-1.159 3.067-2.152 4.393-.166.248-.414.497-.579.746a6.604 6.604 0 0 1-1.076 1.077c-1.49 1.327-3.228 2.321-5.297 2.818-6.786 1.658-13.655-2.403-15.31-9.2-1.738-6.796 2.4-13.676 9.186-15.333 2.4-.581 4.883-.498 7.2.331 3.973 1.243 7.035 4.642 8.11 8.786z" fill="url(#x)"/><path clip-rule="evenodd" d="M41.225 21.227c.166.746.248 1.492.331 2.238v.497c0 .58-.083 1.16-.165 1.741-.083.248-.083.414-.166.662a10.189 10.189 0 0 1-1.738 3.565c-.165.166-.331.414-.496.58-.249.331-.58.58-.828.829-1.159 1.077-2.648 1.823-4.303 2.238-5.462 1.409-11.007-1.907-12.332-7.377-1.406-5.47 1.904-11.024 7.366-12.35 1.904-.497 3.973-.414 5.793.249 3.228 1.077 5.71 3.813 6.538 7.128z" stroke="#F9B400" stroke-width="1.5"/><path d="M43.945 24.119c0 .663-.083 1.326-.166 1.99-.083.248-.083.58-.165.828-.414 1.575-1.159 3.067-2.152 4.393-.166.249-.414.498-.58.746a6.644 6.644 0 0 1-1.075 1.078l-10.511-3.647 1.655-2.238v-.663l-.496-1.161s-2.069-3.978-2.152-4.061c-.083 0-.579-2.901-.579-2.901l1.655 1.409.083-2.321 14.4 5.056c.083.083.083 1.327.083 1.492z" fill="url(#y)"/><path fill-rule="evenodd" clip-rule="evenodd" d="M33.269 29.838c-.414.166-.745.332-1.076.498a17.13 17.13 0 0 1-.59-1.164c-.102-.213-.206-.431-.32-.66-.535.179-1.028.443-1.509.7-.188.102-.374.202-.56.295a36.868 36.868 0 0 1-.23-.878c-.04-.16-.06-.243-.101-.365 0-.035 0-.056.006-.074.009-.024.029-.044.076-.092a2.48 2.48 0 0 0 .663-.332c.331-.165.331-.331.248-.58-.373-.746-.724-1.492-1.076-2.238-.352-.746-.704-1.492-1.076-2.238-.165-.414-.579-.497-.91-.331a2.99 2.99 0 0 0-.374.166 2.957 2.957 0 0 1-.371.165 12.6 12.6 0 0 1-.248-.538 12.919 12.919 0 0 0-.249-.539c.207-.083.498-.229.83-.395.33-.165.702-.351 1.074-.517.165-.083.165-.083.083-.166a14.544 14.544 0 0 0-.414-.87c-.165-.331-.331-.663-.414-.87.165-.083.352-.166.538-.249.186-.083.373-.166.538-.249.165.29.31.6.454.91.145.312.29.623.456.914.161-.108.323-.18.507-.264.1-.044.205-.092.321-.15-.218-.382-.4-.764-.594-1.17-.1-.21-.204-.427-.317-.654l.497-.248.497-.249.04.082c.178.356.787 1.583.787 1.658 0 .083.083.083.166.083 1.324-.414 2.565-.58 3.227.663.249.415.414.829.331 1.326a2.513 2.513 0 0 1-.266.625c-.024.044-.047.085-.065.121.055 0 .125-.007.207-.015.42-.04 1.157-.11 1.779.513.2.198.344.503.48.787l.1.207c.165.415.165.829.083 1.244a2.286 2.286 0 0 1-.663 1.243c-.413.414-.91.746-1.406 1.077-.048.048-.068.068-.077.092-.006.019-.006.039-.006.074.248.497.496.995.827 1.741l-.993.497c-.124-.29-.268-.578-.412-.867-.145-.291-.29-.583-.415-.874-.16.107-.32.18-.503.262a8.76 8.76 0 0 0-.325.153c.166.58.414 1.16.745 1.74zm-2.566-5.304c.166.373.352.746.538 1.119.186.373.372.746.538 1.119.165-.089.319-.17.462-.246.79-.418 1.27-.672 1.69-1.163.248-.332.331-.663.166-.995-.166-.414-.497-.58-.911-.663-.691-.077-1.667.417-2.333.753l-.15.076zm-.992-2.031c-.166-.352-.331-.704-.497-1.036.496-.331 1.158-.663 1.903-.663.828-.083 1.49.995.58 1.823-.332.332-1.076.746-1.49.912a48.934 48.934 0 0 1-.497-1.036z" fill="url(#z)"/><path d="m89.048 20.555-.414-1.657c-.413-1.658-1.572-3.067-3.062-3.896l-7.531-4.061-.248.663c-.331.994.083 2.155.993 2.652l-.083.166c-.248.994.166 1.989.993 2.569l.497.332v.911c-.083.829.414 1.658 1.159 2.155l3.724 2.238" fill="#6C7384"/><path d="m78.786 14.256 3.228 1.658m-1.738 1.409 3.228 1.657" stroke="#1E1F28" stroke-linecap="round" stroke-linejoin="round"/><path d="m99.145 25.363 1.572-.663a6.243 6.243 0 0 1 4.883 0l7.862 3.398-.414.58c-.579.912-1.737 1.243-2.731.912l-.082.166c-.58.828-1.655 1.16-2.566.828l-.579-.165-.662.58a2.307 2.307 0 0 1-2.4.414l-4.138-1.492" fill="#6C7384"/><path d="m110.4 29.507-3.31-1.492m0 2.238-3.311-1.492" stroke="#1E1F28" stroke-linecap="round" stroke-linejoin="round"/><path d="M98.908 31.919c-.414.497-.828.994-1.324 1.409-.083.082-.166.166-.331.248a4.906 4.906 0 0 1-1.242.746l-.496.249a8.652 8.652 0 0 1-3.228.663h-.579c-.331 0-.662-.083-.993-.083-1.324-.248-2.566-.746-3.724-1.658-3.725-2.9-4.469-8.205-1.573-11.935 2.814-3.73 8.193-4.475 11.917-1.575 1.325.995 2.318 2.404 2.897 3.979.91 2.652.414 5.719-1.324 7.957z" fill="url(#A)"/><path clip-rule="evenodd" d="M97.584 30.924a6.61 6.61 0 0 1-1.076 1.078c-.083.083-.165.165-.248.165-.331.249-.662.415-.993.664-.166.083-.249.165-.414.165-.828.332-1.738.581-2.566.581h-.496c-.248 0-.579-.083-.828-.083a6.045 6.045 0 0 1-2.979-1.327c-2.979-2.32-3.559-6.63-1.324-9.614 2.317-2.984 6.62-3.564 9.6-1.326 1.076.829 1.903 1.906 2.317 3.149.828 2.321.414 4.725-.993 6.548z" stroke="#F9B400" stroke-width="1.5"/><path d="M97.159 33.568c-.331.249-.745.497-1.16.746l-.495.249a8.656 8.656 0 0 1-3.228.663h-.58c-.33 0-.661-.083-.992-.083l-2.483-7.128 1.903-.083.33-.249.415-.746s1.24-2.735 1.24-2.818l1.326-1.492v1.492l1.24-.911 3.394 9.78c-.165 0-.745.497-.91.58z" fill="url(#B)"/><path fill-rule="evenodd" clip-rule="evenodd" d="M89.71 30.336c-.124-.041-.247-.103-.371-.165a2.905 2.905 0 0 0-.374-.167c.083-.207.186-.414.29-.622.103-.207.207-.414.29-.621-.4-.24-.877-.48-1.356-.72l-.051-.026c.138-.208.233-.343.303-.442.097-.139.145-.207.193-.304 0 0 .083-.083.083 0 .045.022.083.045.12.066.096.056.173.1.294.1.248.083.33.083.414-.083l.026-.053c.487-.977.974-1.953 1.38-2.931.166-.332 0-.497-.165-.58l-.248-.125-.248-.124c.041-.124.103-.249.166-.374a2.92 2.92 0 0 0 .165-.372c.248.166.744.415 1.324.58.035 0 .055 0 .073-.006.024-.009.044-.029.092-.076.083-.125.186-.352.29-.58.103-.228.207-.456.29-.581.124.042.248.104.372.166.124.062.248.125.372.166a8.325 8.325 0 0 1-.291.625 8.144 8.144 0 0 0-.288.618l.006.003c.164.082.328.164.573.246.083-.207.186-.415.29-.622.103-.207.207-.415.29-.622.124.041.227.104.33.166.104.062.207.124.332.166-.02.041-.062.135-.114.252-.156.35-.404.908-.466.908v.083c.828.497 1.325 1.078.994 1.989-.083.332-.25.581-.58.746a6.667 6.667 0 0 0-.183.065c-.154.056-.275.101-.396.101l.047.047c.197.19.608.588.532 1.196 0 .249-.165.498-.331.746a1.918 1.918 0 0 1-.58.58c-.33.166-.578.166-.91.166-.351 0-.643-.12-.978-.258l-.18-.073h-.083l-.293.588-.286.572c-.124-.041-.227-.103-.33-.165a1.61 1.61 0 0 0-.332-.166c.112-.282.263-.563.4-.818.064-.121.126-.236.179-.343a3.91 3.91 0 0 0-.58-.248c-.165.497-.33.911-.496 1.326zm1.738-3.564c-.248.497-.496.994-.745 1.574.117.052.227.103.33.15.548.252.907.418 1.326.348.248 0 .496-.083.579-.332a.624.624 0 0 0 0-.746c-.331-.497-1.076-.829-1.49-.994zm.66-1.364c.104-.23.208-.458.333-.708.062.03.13.062.201.094.31.142.689.315.958.652.33.414.083 1.243-.745 1.077-.248 0-.828-.249-1.076-.414.123-.248.226-.475.33-.701z" fill="url(#C)"/><path d="M30.869 145.628v2.569c-.083.249-.248.415-.497.415h-20.11c-.248 0-.414-.166-.414-.415v-2.569c0-.332.249-.58.497-.58h20.11c.166.082.414.331.414.58z" fill="url(#D)"/><path opacity=".5" d="m13.821 145.13-.745 3.482H10.18l.745-3.482h2.896zm9.517 0-.745 3.482h-1.655l.745-3.482h1.655zm-8.359 0-.745 3.482h-.744l.744-3.482h.745z" fill="#fff"/><path opacity=".1" d="M30.786 148.197H9.765v.415h21.021v-.415z" fill="#4F3500"/><path d="M52.138 145.296v2.404c0 .332-.248.58-.497.58H31.614c-.248 0-.497-.248-.497-.58v-2.404c0-.331.249-.58.497-.58h20.11c.248 0 .414.249.414.58z" fill="url(#E)"/><path opacity=".5" d="m36.58 144.716-.745 3.481h-2.814l.662-3.481h2.897zm9.517 0-.662 3.481h-1.738l.744-3.481h1.656zm-8.359 0-.662 3.481h-.745l.662-3.481h.745z" fill="#fff"/><path opacity=".1" d="M52.22 147.783H31.118v.414H52.22v-.414z" fill="#4F3500"/><path d="M56.276 141.732v2.404c0 .332-.248.58-.497.58h-20.11c-.248 0-.497-.248-.497-.58v-2.404c0-.331.249-.58.497-.58h20.11c.249.083.497.332.497.58z" fill="url(#F)"/><path opacity=".5" d="m45.021 141.235-.662 3.481h-2.897l.745-3.481h2.814zm9.599 0-.744 3.481H52.22l.662-3.481h1.738zm-8.358 0-.745 3.481h-.745l.745-3.481h.745z" fill="#fff"/><path opacity=".1" d="M56.276 144.302H35.172v.414h21.104v-.414z" fill="#4F3500"/><path d="m17.793 48.57.745-.911c.166-.166-.083-.498-.331-.415l-1.076.415c-.414.165-.827.082-1.241-.166l-.911-.746c-.165-.166-.496.083-.413.331l.413 1.078c.166.414.083.829-.165 1.243l-.745.829c-.165.166.083.497.331.414l1.076-.414c.414-.166.828-.083 1.241.166l.911.746c.165.165.496-.083.414-.332l-.497-1.077c-.166-.415-.083-.829.248-1.161z" fill="url(#G)"/><path d="m68.607 16.908.662.498a.183.183 0 0 0 .248-.249l-.33-.746c-.166-.248-.083-.58.082-.912l.497-.663a.183.183 0 0 0-.249-.248l-.745.331c-.248.166-.579.083-.91-.083l-.662-.497a.183.183 0 0 0-.248.249l.331.746c.165.248.083.58-.083.911l-.496.663a.183.183 0 0 0 .248.249l.745-.331c.331-.166.662-.083.91.082z" fill="url(#H)"/><path d="m77.297 30.087.827-.746c.166-.166 0-.497-.248-.414l-1.076.248a1.224 1.224 0 0 1-1.076-.331l-.745-.829c-.165-.166-.496 0-.413.248l.248 1.078c.083.414-.083.829-.331 1.077l-.828.746c-.165.166 0 .498.248.415l1.076-.249c.414-.083.828.083 1.076.332l.745.829c.166.165.497 0 .414-.249l-.248-1.078c-.083-.331.082-.746.331-1.077z" fill="url(#I)"/><path d="m111.807 17.82.662.498a.183.183 0 0 0 .248-.249l-.331-.746c-.165-.249-.082-.58.083-.912l.497-.663a.184.184 0 0 0-.249-.249l-.744.332c-.249.166-.58.083-.911-.083l-.662-.497a.183.183 0 0 0-.248.248l.331.746c.165.249.083.581-.083.912l-.496.663a.183.183 0 0 0 .248.249l.745-.332c.248-.165.579-.083.91.083z" fill="url(#J)"/><defs><linearGradient id="a" x1="44.851" y1="42.652" x2="49.069" y2="39.17" gradientUnits="userSpaceOnUse"><stop offset=".003" stop-color="#FFD44F"/><stop offset="1" stop-color="#FFA607"/></linearGradient><linearGradient id="b" x1="48.783" y1="132.147" x2="68.309" y2="132.147" gradientUnits="userSpaceOnUse"><stop offset=".003" stop-color="#FFD44F"/><stop offset="1" stop-color="#FFA607"/></linearGradient><linearGradient id="c" x1="50.316" y1="129.371" x2="69.842" y2="129.371" gradientUnits="userSpaceOnUse"><stop offset=".003" stop-color="#FFD44F"/><stop offset="1" stop-color="#FFA607"/></linearGradient><linearGradient id="d" x1="49.749" y1="126.615" x2="69.275" y2="126.615" gradientUnits="userSpaceOnUse"><stop offset=".003" stop-color="#FFD44F"/><stop offset="1" stop-color="#FFA607"/></linearGradient><linearGradient id="e" x1="50.316" y1="137.678" x2="69.842" y2="137.678" gradientUnits="userSpaceOnUse"><stop offset=".003" stop-color="#FFD44F"/><stop offset="1" stop-color="#FFA607"/></linearGradient><linearGradient id="f" x1="47.24" y1="134.917" x2="66.766" y2="134.917" gradientUnits="userSpaceOnUse"><stop offset=".003" stop-color="#FFD44F"/><stop offset="1" stop-color="#FFA607"/></linearGradient><linearGradient id="g" x1="50.316" y1="123.832" x2="69.842" y2="123.832" gradientUnits="userSpaceOnUse"><stop offset=".003" stop-color="#FFD44F"/><stop offset="1" stop-color="#FFA607"/></linearGradient><linearGradient id="h" x1="47.24" y1="121.07" x2="66.766" y2="121.07" gradientUnits="userSpaceOnUse"><stop offset=".003" stop-color="#FFD44F"/><stop offset="1" stop-color="#FFA607"/></linearGradient><linearGradient id="i" x1="23.026" y1="92.314" x2="86.408" y2="92.314" gradientUnits="userSpaceOnUse"><stop offset=".003" stop-color="#FFD44F"/><stop offset="1" stop-color="#FFA607"/></linearGradient><linearGradient id="j" x1="89.809" y1="100.94" x2="98.692" y2="100.699" gradientUnits="userSpaceOnUse"><stop offset=".003" stop-color="#FFD44F"/><stop offset="1" stop-color="#FFA607"/></linearGradient><linearGradient id="k" x1="27.738" y1="82.399" x2="52.021" y2="82.399" gradientUnits="userSpaceOnUse"><stop offset=".003" stop-color="#FFD44F"/><stop offset="1" stop-color="#FFA607"/></linearGradient><linearGradient id="l" x1="36.345" y1="73.329" x2="42.893" y2="78.259" gradientUnits="userSpaceOnUse"><stop stop-color="#FAA404"/><stop offset="1" stop-color="#FF7904" stop-opacity=".01"/></linearGradient><linearGradient id="m" x1="48.38" y1="70.953" x2="36.976" y2="63.902" gradientUnits="userSpaceOnUse"><stop stop-color="#FFE491"/><stop offset="1" stop-color="#fff"/></linearGradient><linearGradient id="n" x1="26.758" y1="137.746" x2="50.544" y2="137.746" gradientUnits="userSpaceOnUse"><stop offset=".003" stop-color="#FFD44F"/><stop offset="1" stop-color="#FFA607"/></linearGradient><linearGradient id="o" x1="28.626" y1="134.373" x2="52.413" y2="134.373" gradientUnits="userSpaceOnUse"><stop offset=".003" stop-color="#FFD44F"/><stop offset="1" stop-color="#FFA607"/></linearGradient><linearGradient id="p" x1="27.935" y1="130.999" x2="51.722" y2="130.999" gradientUnits="userSpaceOnUse"><stop offset=".003" stop-color="#FFD44F"/><stop offset="1" stop-color="#FFA607"/></linearGradient><linearGradient id="q" x1="26.758" y1="120.878" x2="50.544" y2="120.878" gradientUnits="userSpaceOnUse"><stop offset=".003" stop-color="#FFD44F"/><stop offset="1" stop-color="#FFA607"/></linearGradient><linearGradient id="r" x1="28.626" y1="117.504" x2="52.413" y2="117.504" gradientUnits="userSpaceOnUse"><stop offset=".003" stop-color="#FFD44F"/><stop offset="1" stop-color="#FFA607"/></linearGradient><linearGradient id="s" x1="27.935" y1="114.131" x2="51.722" y2="114.131" gradientUnits="userSpaceOnUse"><stop offset=".003" stop-color="#FFD44F"/><stop offset="1" stop-color="#FFA607"/></linearGradient><linearGradient id="t" x1="28.626" y1="127.625" x2="52.413" y2="127.625" gradientUnits="userSpaceOnUse"><stop offset=".003" stop-color="#FFD44F"/><stop offset="1" stop-color="#FFA607"/></linearGradient><linearGradient id="u" x1="24.879" y1="124.253" x2="48.665" y2="124.253" gradientUnits="userSpaceOnUse"><stop offset=".003" stop-color="#FFD44F"/><stop offset="1" stop-color="#FFA607"/></linearGradient><linearGradient id="v" x1="28.626" y1="110.757" x2="52.413" y2="110.757" gradientUnits="userSpaceOnUse"><stop offset=".003" stop-color="#FFD44F"/><stop offset="1" stop-color="#FFA607"/></linearGradient><linearGradient id="w" x1="24.879" y1="107.383" x2="48.665" y2="107.383" gradientUnits="userSpaceOnUse"><stop offset=".003" stop-color="#FFD44F"/><stop offset="1" stop-color="#FFA607"/></linearGradient><linearGradient id="x" x1="25.722" y1="40.73" x2="48.479" y2="29.781" gradientUnits="userSpaceOnUse"><stop offset=".003" stop-color="#FFD44F"/><stop offset="1" stop-color="#FFA607"/></linearGradient><linearGradient id="y" x1="29.531" y1="27.766" x2="37.217" y2="30.659" gradientUnits="userSpaceOnUse"><stop stop-color="#FAA404"/><stop offset="1" stop-color="#FF7904" stop-opacity=".01"/></linearGradient><linearGradient id="z" x1="40.097" y1="20.834" x2="28.195" y2="16.721" gradientUnits="userSpaceOnUse"><stop stop-color="#FFE491"/><stop offset="1" stop-color="#fff"/></linearGradient><linearGradient id="A" x1="80.882" y1="30.716" x2="96.249" y2="38.094" gradientUnits="userSpaceOnUse"><stop offset=".003" stop-color="#FFD44F"/><stop offset="1" stop-color="#FFA607"/></linearGradient><linearGradient id="B" x1="89.724" y1="27.85" x2="92.446" y2="32.581" gradientUnits="userSpaceOnUse"><stop stop-color="#FAA404"/><stop offset="1" stop-color="#FF7904" stop-opacity=".01"/></linearGradient><linearGradient id="C" x1="96.202" y1="30.604" x2="93.448" y2="22.542" gradientUnits="userSpaceOnUse"><stop stop-color="#FFE491"/><stop offset="1" stop-color="#fff"/></linearGradient><linearGradient id="D" x1="9.788" y1="148.628" x2="30.85" y2="148.628" gradientUnits="userSpaceOnUse"><stop offset=".003" stop-color="#FFD44F"/><stop offset="1" stop-color="#FFA607"/></linearGradient><linearGradient id="E" x1="31.113" y1="148.23" x2="52.177" y2="148.23" gradientUnits="userSpaceOnUse"><stop offset=".003" stop-color="#FFD44F"/><stop offset="1" stop-color="#FFA607"/></linearGradient><linearGradient id="F" x1="35.192" y1="144.727" x2="56.255" y2="144.727" gradientUnits="userSpaceOnUse"><stop offset=".003" stop-color="#FFD44F"/><stop offset="1" stop-color="#FFA607"/></linearGradient><linearGradient id="G" x1="15.942" y1="52.748" x2="20.096" y2="49.191" gradientUnits="userSpaceOnUse"><stop offset=".003" stop-color="#FFD44F"/><stop offset="1" stop-color="#FFA607"/></linearGradient><linearGradient id="H" x1="65.5" y1="15.804" x2="68.253" y2="18.614" gradientUnits="userSpaceOnUse"><stop offset=".003" stop-color="#FFD44F"/><stop offset="1" stop-color="#FFA607"/></linearGradient><linearGradient id="I" x1="75.044" y1="33.737" x2="79.389" y2="31.124" gradientUnits="userSpaceOnUse"><stop offset=".003" stop-color="#FFD44F"/><stop offset="1" stop-color="#FFA607"/></linearGradient><linearGradient id="J" x1="108.646" y1="16.73" x2="111.397" y2="19.538" gradientUnits="userSpaceOnUse"><stop offset=".003" stop-color="#FFD44F"/><stop offset="1" stop-color="#FFA607"/></linearGradient></defs></svg>